<svg width="70" height="70" viewBox="0 0 70 70" fill="none" xmlns="http://www.w3.org/2000/svg">
<rect width="70" height="70" rx="35" fill="#FCF9E8" fill-opacity="0.6"/>
<mask id="mask0_652_871" style="mask-type:alpha" maskUnits="userSpaceOnUse" x="15" y="15" width="40" height="40">
<rect x="15" y="15" width="40" height="40" fill="#D9D9D9"/>
</mask>
<g mask="url(#mask0_652_871)">
<path d="M46.2342 44.5148L43.4939 43.6844L43.4953 29.1334C43.4953 24.7447 39.6921 21.096 35.0173 21C35.0145 21 35.0118 21.0014 35.0077 21.0014C35.0049 21.0014 35.0022 21 34.9981 21C30.318 21.0958 26.5106 24.7443 26.5106 29.1334V43.6886L23.7786 44.5176C22.1164 45.0402 21 46.5629 21 48.3071V48.3208C21 48.5711 21.2025 48.7654 21.4515 48.7654C21.4624 48.7654 21.472 48.7599 21.4829 48.7586H48.5312C48.5435 48.7599 48.5531 48.7654 48.5654 48.7654C48.8157 48.7654 49.0182 48.5561 49.0182 48.3071C49.0182 46.5628 47.9018 45.0401 46.2342 44.5148ZM27.4149 29.1334C27.4149 25.2357 30.8201 21.9947 35.0079 21.9043C39.19 21.9946 42.5911 25.2356 42.5911 29.1334V43.4109L40.3447 42.7296C39.4226 42.4382 38.6852 41.7213 38.3719 40.8115L38.1161 40.0823C39.978 38.5706 40.9261 37.0561 40.9152 35.5731L40.896 29.4648C40.896 29.2773 40.7811 29.1173 40.6183 29.0489C40.5636 29.0242 40.502 29.0106 40.4377 29.0106C39.0081 29.0106 37.6742 28.15 36.8958 26.7587C37.1038 26.3483 37.2173 25.9132 37.2173 25.459C37.2173 25.2087 37.0149 25.0075 36.7659 25.0075C36.5155 25.0075 36.3144 25.21 36.3144 25.459C36.3144 27.3853 33.2266 29.0121 29.5725 29.0121C29.5492 29.0121 29.5301 29.0217 29.5082 29.0244C29.3207 29.0436 29.1949 29.1612 29.1484 29.324C29.1333 29.3692 29.1196 29.4143 29.1196 29.4636C29.1196 29.469 29.1224 29.4745 29.1237 29.4814L29.1046 35.5722C29.0936 37.0566 30.0417 38.571 31.9037 40.0828L31.6479 40.8133C31.3346 41.7218 30.5972 42.4373 29.6806 42.7273L27.4178 43.414L27.4149 29.1334ZM37.2816 39.5923L37.2789 39.595C37.1763 39.6744 37.0709 39.7578 36.971 39.8317C36.3965 40.2545 35.7179 40.4788 35.0106 40.4788C34.3033 40.4788 33.6247 40.2545 33.0487 39.8317C32.9475 39.7578 32.8435 39.6744 32.7409 39.595C32.7395 39.5937 32.7382 39.5937 32.7368 39.5923C31.4193 38.5717 29.9979 37.1188 30.0088 35.5769L30.0266 29.9036C32.7915 29.8133 35.1214 28.9076 36.3293 27.5765C37.2035 28.8994 38.5388 29.7367 39.9945 29.8817L40.0123 35.5785C40.0218 37.119 38.6005 38.5731 37.2816 39.5923ZM21.9398 47.8542C22.1081 46.7023 22.9111 45.7364 24.0453 45.3794L29.9459 43.5899C31.1389 43.2123 32.0938 42.2847 32.4988 41.1096L32.6589 40.6513C33.3593 41.1233 34.1638 41.3818 35.0078 41.3818C35.8519 41.3818 36.6564 41.1232 37.3568 40.6513L37.5169 41.1082C37.9232 42.2861 38.8781 43.2137 40.0766 43.5927L42.8647 44.4382C42.8675 44.4395 42.8702 44.4395 42.8729 44.4409L45.9689 45.3794C47.1058 45.7378 47.9102 46.7023 48.0785 47.8556L21.9398 47.8542Z" fill="black"/>
</g>
</svg>
