<svg width="70" height="70" viewBox="0 0 70 70" fill="none" xmlns="http://www.w3.org/2000/svg">
<rect width="70" height="70" rx="35" fill="#FCF9E8" fill-opacity="0.6"/>
<mask id="mask0_613_2692" style="mask-type:alpha" maskUnits="userSpaceOnUse" x="15" y="15" width="40" height="40">
<rect x="15" y="15" width="40" height="40" fill="#D9D9D9"/>
</mask>
<g mask="url(#mask0_613_2692)">
<path fill-rule="evenodd" clip-rule="evenodd" d="M40.481 23.332C40.8954 23.332 41.2307 23.6674 41.2307 24.0817V25.4918H42.9366C45.401 25.4918 47.4056 27.4979 47.4056 29.9624V38.0994C49.4146 39.5226 50.731 41.858 50.731 44.5011C50.731 48.8281 47.2109 52.3499 42.8838 52.3499C39.7912 52.3499 37.1204 50.5473 35.8421 47.9438H24.469C22.0047 47.9438 20 45.9377 20 43.4733V29.9624C20 27.498 22.0046 25.4918 24.469 25.4918H26.1749V24.0817C26.1749 23.6673 26.5102 23.332 26.9246 23.332C27.339 23.332 27.6743 23.6674 27.6743 24.0817V25.4918H39.7312V24.0817C39.7312 23.6673 40.0666 23.332 40.481 23.332ZM42.8839 38.1534C39.3828 38.1534 36.5346 41.0015 36.5346 44.5012C36.5346 48.0009 39.3827 50.8506 42.8839 50.8506C46.3835 50.8506 49.2317 48.001 49.2317 44.5012C49.2317 41.0016 46.3837 38.1534 42.8839 38.1534ZM45.1477 42.1933C45.4406 41.9004 45.915 41.9004 46.2078 42.1933C46.5007 42.4847 46.5007 42.9606 46.2078 43.2534L42.6511 46.8087C42.5105 46.9492 42.3202 47.0283 42.121 47.0283C41.9219 47.0283 41.7315 46.9492 41.5909 46.8087L39.5585 44.7777C39.2656 44.4834 39.2656 44.0104 39.5585 43.7161C39.8514 43.4233 40.3258 43.4233 40.6186 43.7161L42.121 45.2185L45.1477 42.1933ZM45.9062 32.627H21.4997V43.473C21.4997 45.1116 22.8322 46.444 24.4693 46.444H35.2887C35.1291 45.8217 35.0354 45.1731 35.0354 44.5009C35.0354 40.174 38.5555 36.6537 42.8841 36.6537C43.9545 36.6537 44.9751 36.8704 45.9064 37.2614L45.9062 32.627ZM26.1749 26.991H24.469C22.832 26.991 21.4995 28.3235 21.4995 29.962V31.1276H45.9059V29.962C45.9059 28.3235 44.5734 26.991 42.9364 26.991H41.2305V28.2064C41.2305 28.6193 40.8951 28.9561 40.4808 28.9561C40.0664 28.9561 39.731 28.6193 39.731 28.2064V26.991H27.6742V28.2064C27.6742 28.6193 27.3389 28.9561 26.9245 28.9561C26.5101 28.9561 26.1748 28.6193 26.1748 28.2064L26.1749 26.991Z" fill="#1D1C19"/>
</g>
</svg>
