<svg width="70" height="70" viewBox="0 0 70 70" fill="none" xmlns="http://www.w3.org/2000/svg">
<rect width="70" height="70" rx="35" fill="#FCF9E8" fill-opacity="0.6"/>
<mask id="mask0_652_811" style="mask-type:alpha" maskUnits="userSpaceOnUse" x="15" y="15" width="40" height="40">
<rect x="15" y="15" width="40" height="40" fill="#D9D9D9"/>
</mask>
<g mask="url(#mask0_652_811)">
<path d="M48.0264 30.9103C45.0071 30.9103 42.5508 33.3668 42.5508 36.386C42.5508 37.072 42.674 37.7291 42.9128 38.3269C43.7037 40.4412 45.7587 41.8618 48.0267 41.8618C48.4633 41.8618 48.915 41.8071 49.3744 41.6976C51.8051 41.0815 53.5027 38.8973 53.5027 36.3858C53.5027 33.3665 51.0462 30.9102 48.0271 30.9102L48.0264 30.9103ZM49.0851 40.5159C48.7246 40.6011 48.3687 40.6452 48.0264 40.6452C46.2635 40.6452 44.6649 39.5424 44.0472 37.889C43.8617 37.4236 43.7673 36.917 43.7673 36.3862C43.7673 34.0377 45.6778 32.127 48.0265 32.127C50.3753 32.127 52.2857 34.0374 52.2857 36.3862C52.2857 38.3392 50.9667 40.0385 49.0851 40.5159Z" fill="black"/>
<path d="M49.4223 34.7405L47.419 36.7437L46.6326 35.9573C46.3953 35.72 46.0105 35.72 45.7717 35.9573C45.5344 36.1946 45.5344 36.5795 45.7717 36.8182L46.9886 38.0351C47.1072 38.1537 47.2624 38.2131 47.4175 38.2131C47.5727 38.2131 47.7294 38.1537 47.848 38.0351L50.2817 35.6014C50.519 35.3641 50.519 34.9792 50.2817 34.7405C50.0444 34.5032 49.6595 34.5032 49.4223 34.7405Z" fill="black"/>
<path d="M23.5701 40.2733C24.0827 40.2733 24.5755 40.0558 24.9254 39.6771C25.2737 39.2968 25.4487 38.7872 25.4061 38.2762L24.9939 33.3873C24.9939 33.3052 24.9832 33.2215 24.9604 33.1409C24.8342 32.4442 24.3246 31.9103 23.666 31.7248V24.2169C23.666 23.546 23.1199 23 22.4491 23H19.9607C19.2898 23 18.7438 23.546 18.7438 24.2169V31.7248C18.0228 31.9301 17.4813 32.5507 17.4144 33.3371L17.0067 38.2762C16.9626 38.7888 17.1375 39.2999 17.4859 39.6786C17.8342 40.0574 18.3285 40.2734 18.8411 40.2734L23.5701 40.2733ZM19.9606 24.217H22.4491V25.4704H21.2049C20.8687 25.4704 20.5964 25.7427 20.5964 26.0788C20.5964 26.415 20.8687 26.6873 21.2049 26.6873H22.4491V27.9406H21.2049C20.8687 27.9406 20.5964 28.2129 20.5964 28.5491C20.5964 28.8852 20.8687 29.1575 21.2049 29.1575H22.4491V31.646L19.9606 31.6444V24.217ZM18.219 38.3766L18.6266 33.4375C18.654 33.1089 18.9248 32.8625 19.2549 32.8625H23.155C23.4577 32.8625 23.7193 33.0816 23.765 33.3706C23.768 33.3919 23.7726 33.4132 23.7787 33.4344V33.4329V33.4375L24.1924 38.3781C24.2076 38.5531 24.1483 38.7219 24.0281 38.8527C23.908 38.9835 23.7452 39.0565 23.5688 39.0565H18.8427C18.6662 39.0565 18.502 38.9851 18.3833 38.8542C18.2616 38.7234 18.2038 38.5546 18.219 38.3766Z" fill="black"/>
<path d="M49.3348 43.0078C49.0123 42.9166 48.6747 43.1006 48.5819 43.4231C48.4343 43.9357 47.9567 44.2932 47.4198 44.2932H44.0126C43.9745 44.1045 43.9152 43.922 43.8422 43.7486C43.8224 43.6984 43.7935 43.6543 43.7707 43.6056C43.7129 43.4855 43.6536 43.3684 43.5821 43.2573C43.5456 43.2026 43.506 43.1508 43.4665 43.0991C43.395 43.0033 43.3205 42.9105 43.2399 42.8238C43.1912 42.7736 43.1425 42.7249 43.0908 42.6778C43.0056 42.5987 42.9174 42.5257 42.8231 42.4572C42.7653 42.4146 42.709 42.3751 42.6497 42.3371C42.5508 42.2747 42.4459 42.2199 42.3394 42.1682C42.277 42.1378 42.2177 42.1074 42.1523 42.0815C42.0321 42.0344 41.9089 41.9994 41.7812 41.9659C41.7234 41.9507 41.6686 41.9309 41.6093 41.9188C41.4222 41.8823 41.229 41.8595 41.0313 41.8595H41.0297H41.0236C40.8289 41.8595 40.6388 41.8808 40.4533 41.9173C40.3894 41.9294 40.3285 41.9522 40.2662 41.9675C40.146 41.9994 40.0274 42.0313 39.9133 42.077C39.8433 42.1044 39.7779 42.1393 39.711 42.1713C39.6106 42.22 39.5132 42.2702 39.4205 42.3295C39.3535 42.3705 39.2912 42.4162 39.2288 42.4633C39.1436 42.5272 39.0615 42.5941 38.9824 42.6672C38.9246 42.7204 38.8683 42.7736 38.8151 42.8314C38.7421 42.9105 38.6751 42.9927 38.6112 43.0794C38.5641 43.1417 38.5169 43.2011 38.4759 43.2665C38.4135 43.3623 38.3633 43.4642 38.3116 43.5676C38.2796 43.6315 38.2447 43.6924 38.2173 43.7578C38.1595 43.8992 38.1154 44.0483 38.0804 44.2004C38.0697 44.2323 38.056 44.2612 38.05 44.2932H28.8018C28.7638 44.1046 28.7045 43.922 28.6315 43.7486C28.6117 43.6984 28.5828 43.6543 28.56 43.6057C28.5022 43.4855 28.4429 43.3684 28.3714 43.2573C28.3349 43.2026 28.2953 43.1509 28.2558 43.0991C28.1843 43.0033 28.1097 42.9105 28.0291 42.8238C27.9805 42.7736 27.9318 42.725 27.8801 42.6778C27.7949 42.5987 27.7067 42.5257 27.6124 42.4573C27.5546 42.4147 27.4983 42.3751 27.439 42.3371C27.3401 42.2747 27.2351 42.22 27.1287 42.1683C27.0663 42.1378 27.007 42.1074 26.9416 42.0815C26.8214 42.0344 26.6982 41.9994 26.5704 41.9659C26.5126 41.9507 26.4579 41.931 26.3985 41.9188C26.2114 41.8823 26.0183 41.8595 25.8205 41.8595H25.819H25.8129C25.6182 41.8595 25.4281 41.8808 25.2425 41.9173C25.1786 41.9294 25.1178 41.9523 25.0554 41.9675C24.9353 41.9994 24.8166 42.0314 24.7025 42.077C24.6326 42.1044 24.5672 42.1394 24.5002 42.1713C24.3999 42.22 24.3025 42.2702 24.2097 42.3295C24.1428 42.3706 24.0804 42.4162 24.0181 42.4633C23.9329 42.5272 23.8507 42.5942 23.7717 42.6672C23.7138 42.7204 23.6576 42.7736 23.6043 42.8314C23.5313 42.9105 23.4644 42.9927 23.4005 43.0794C23.3534 43.1417 23.3062 43.2011 23.2651 43.2665C23.2028 43.3623 23.1526 43.4642 23.1009 43.5677C23.0689 43.6315 23.0339 43.6924 23.0065 43.7578C22.9487 43.8992 22.9046 44.0483 22.8696 44.2004C22.859 44.2324 22.8453 44.2613 22.8392 44.2932H21.379C20.0998 44.2932 19.0289 43.2939 18.9438 42.0192C18.9225 41.6846 18.638 41.4442 18.2958 41.4534C17.9611 41.4762 17.7071 41.7667 17.7299 42.1014C17.8577 44.0134 19.4609 45.5101 21.379 45.5101H22.8392C23.1221 46.8973 24.3512 47.9438 25.8205 47.9438C27.2899 47.9438 28.5189 46.8973 28.8018 45.5101H38.0515C38.3344 46.8973 39.5634 47.9438 41.0328 47.9438C42.5021 47.9438 43.7312 46.8973 44.014 45.5101H47.4228C48.4982 45.5101 49.4565 44.7906 49.7531 43.7624C49.8443 43.4384 49.6573 43.1022 49.3348 43.0078ZM25.8189 46.7269C24.8135 46.7269 23.9951 45.91 23.9936 44.9046V44.9016C23.9936 43.8946 24.8119 43.0763 25.8189 43.0763C26.8258 43.0763 27.6442 43.8946 27.6442 44.9016C27.6442 45.9085 26.8258 46.7269 25.8189 46.7269ZM41.0294 46.7269C40.024 46.7269 39.2056 45.91 39.2041 44.9046V44.9016C39.2041 43.8946 40.0225 43.0763 41.0294 43.0763C42.0363 43.0763 42.8547 43.8946 42.8547 44.9016C42.8547 45.9085 42.0363 46.7269 41.0294 46.7269Z" fill="black"/>
<path d="M26.5768 32.27C26.8293 32.1757 27.1016 32.127 27.3845 32.127H30.384V36.9944H27.1776C26.8414 36.9944 26.5692 37.2667 26.5692 37.6029C26.5692 37.939 26.8414 38.2113 27.1776 38.2113H40.8305C41.1667 38.2113 41.439 37.939 41.439 37.6029C41.439 37.2667 41.1667 36.9944 40.8305 36.9944H31.6007V32.127H36.7361C37.13 32.127 37.5042 32.3232 37.7339 32.6457L40.2467 36.2415C40.4399 36.5168 40.8186 36.5853 41.0939 36.3921C41.3692 36.1989 41.4362 35.8202 41.2445 35.5448L38.7287 31.9445C38.2678 31.2965 37.5224 30.9102 36.7361 30.9102H27.3844C26.9539 30.9102 26.5371 30.9847 26.1477 31.1322C25.8329 31.2509 25.6747 31.6022 25.7933 31.9171C25.912 32.2304 26.2634 32.3886 26.5768 32.27Z" fill="black"/>
</g>
</svg>
