<svg width="83" height="33" viewBox="0 0 83 33" fill="none" xmlns="http://www.w3.org/2000/svg">
<rect x="0.1" y="0.1" width="82.8" height="32.8" rx="15.9" fill="#F1FFF4" stroke="#47A359" stroke-width="0.2"/>
<path d="M33.7227 13.8906H36.2373C36.7777 13.8906 37.2383 13.972 37.6191 14.1348C38 14.2975 38.2913 14.5384 38.4932 14.8574C38.6982 15.1732 38.8008 15.5638 38.8008 16.0293C38.8008 16.3841 38.7357 16.6966 38.6055 16.9668C38.4753 17.237 38.2913 17.4648 38.0537 17.6504C37.8161 17.8327 37.5329 17.9743 37.2041 18.0752L36.833 18.2559H34.5723L34.5625 17.2842H36.2568C36.5498 17.2842 36.7939 17.2321 36.9893 17.1279C37.1846 17.0238 37.3311 16.8822 37.4287 16.7031C37.5296 16.5208 37.5801 16.3158 37.5801 16.0879C37.5801 15.8405 37.5312 15.6257 37.4336 15.4434C37.3392 15.2578 37.1927 15.1162 36.9941 15.0186C36.7956 14.9176 36.5433 14.8672 36.2373 14.8672H34.9482V21H33.7227V13.8906ZM37.7803 21L36.1104 17.8066L37.3945 17.8018L39.0889 20.9365V21H37.7803ZM41.1641 15.7168V21H39.9824V15.7168H41.1641ZM39.9043 14.3301C39.9043 14.151 39.9629 14.0029 40.0801 13.8857C40.2005 13.7653 40.3665 13.7051 40.5781 13.7051C40.7865 13.7051 40.9508 13.7653 41.0713 13.8857C41.1917 14.0029 41.252 14.151 41.252 14.3301C41.252 14.5059 41.1917 14.6523 41.0713 14.7695C40.9508 14.8867 40.7865 14.9453 40.5781 14.9453C40.3665 14.9453 40.2005 14.8867 40.0801 14.7695C39.9629 14.6523 39.9043 14.5059 39.9043 14.3301ZM45.6758 19.9062V13.5H46.8574V21H45.7881L45.6758 19.9062ZM42.2383 18.417V18.3145C42.2383 17.9141 42.2855 17.5495 42.3799 17.2207C42.4743 16.8887 42.611 16.6038 42.79 16.3662C42.9691 16.1253 43.1872 15.9414 43.4443 15.8145C43.7015 15.6842 43.9912 15.6191 44.3135 15.6191C44.6325 15.6191 44.9124 15.681 45.1533 15.8047C45.3942 15.9284 45.5993 16.1058 45.7686 16.3369C45.9378 16.5648 46.0729 16.8382 46.1738 17.1572C46.2747 17.473 46.3464 17.8245 46.3887 18.2119V18.5391C46.3464 18.9167 46.2747 19.2617 46.1738 19.5742C46.0729 19.8867 45.9378 20.1569 45.7686 20.3848C45.5993 20.6126 45.3926 20.7884 45.1484 20.9121C44.9076 21.0358 44.626 21.0977 44.3037 21.0977C43.9847 21.0977 43.6966 21.0309 43.4395 20.8975C43.1855 20.764 42.9691 20.5768 42.79 20.3359C42.611 20.0951 42.4743 19.8118 42.3799 19.4863C42.2855 19.1576 42.2383 18.8011 42.2383 18.417ZM43.415 18.3145V18.417C43.415 18.6579 43.4362 18.8825 43.4785 19.0908C43.5241 19.2992 43.5941 19.4831 43.6885 19.6426C43.7829 19.7988 43.9049 19.9225 44.0547 20.0137C44.2077 20.1016 44.39 20.1455 44.6016 20.1455C44.8685 20.1455 45.0882 20.0869 45.2607 19.9697C45.4333 19.8525 45.5684 19.6947 45.666 19.4961C45.7669 19.2943 45.8353 19.0697 45.8711 18.8223V17.9385C45.8516 17.7464 45.8109 17.5674 45.749 17.4014C45.6904 17.2354 45.6107 17.0905 45.5098 16.9668C45.4089 16.8398 45.2835 16.7422 45.1338 16.6738C44.9873 16.6022 44.8132 16.5664 44.6113 16.5664C44.3965 16.5664 44.2142 16.612 44.0645 16.7031C43.9147 16.7943 43.791 16.9196 43.6934 17.0791C43.599 17.2386 43.529 17.4242 43.4834 17.6357C43.4378 17.8473 43.415 18.0736 43.415 18.3145ZM50.417 21.0977C50.0264 21.0977 49.6732 21.0342 49.3574 20.9072C49.0449 20.777 48.778 20.5964 48.5566 20.3652C48.3385 20.1341 48.1709 19.8623 48.0537 19.5498C47.9365 19.2373 47.8779 18.9004 47.8779 18.5391V18.3438C47.8779 17.9303 47.9382 17.556 48.0586 17.2207C48.179 16.8854 48.3467 16.599 48.5615 16.3613C48.7764 16.1204 49.0303 15.9365 49.3232 15.8096C49.6162 15.6826 49.9336 15.6191 50.2754 15.6191C50.653 15.6191 50.9834 15.6826 51.2666 15.8096C51.5498 15.9365 51.7842 16.1156 51.9697 16.3467C52.1585 16.5745 52.2985 16.8464 52.3896 17.1621C52.484 17.4779 52.5312 17.8262 52.5312 18.207V18.71H48.4492V17.8652H51.3691V17.7725C51.3626 17.5609 51.3203 17.3623 51.2422 17.1768C51.1673 16.9912 51.0518 16.8415 50.8955 16.7275C50.7393 16.6136 50.5309 16.5566 50.2705 16.5566C50.0752 16.5566 49.901 16.599 49.748 16.6836C49.5983 16.765 49.473 16.8838 49.3721 17.04C49.2712 17.1963 49.193 17.3851 49.1377 17.6064C49.0856 17.8245 49.0596 18.0703 49.0596 18.3438V18.5391C49.0596 18.7702 49.0905 18.985 49.1523 19.1836C49.2174 19.3789 49.3118 19.5498 49.4355 19.6963C49.5592 19.8428 49.709 19.9583 49.8848 20.043C50.0605 20.1243 50.2607 20.165 50.4854 20.165C50.7686 20.165 51.0208 20.1081 51.2422 19.9941C51.4635 19.8802 51.6556 19.7191 51.8184 19.5107L52.4385 20.1113C52.3245 20.2773 52.1764 20.4368 51.9941 20.5898C51.8118 20.7396 51.5889 20.8617 51.3252 20.9561C51.0648 21.0505 50.762 21.0977 50.417 21.0977ZM56.2666 18.3486H54.416V17.377H56.2666C56.5889 17.377 56.8493 17.3249 57.0479 17.2207C57.2464 17.1165 57.3913 16.9733 57.4824 16.791C57.5768 16.6055 57.624 16.3939 57.624 16.1562C57.624 15.9316 57.5768 15.7217 57.4824 15.5264C57.3913 15.3278 57.2464 15.1683 57.0479 15.0479C56.8493 14.9274 56.5889 14.8672 56.2666 14.8672H54.792V21H53.5664V13.8906H56.2666C56.8167 13.8906 57.2839 13.9883 57.668 14.1836C58.0553 14.3757 58.3499 14.6426 58.5518 14.9844C58.7536 15.3229 58.8545 15.7103 58.8545 16.1465C58.8545 16.6055 58.7536 16.9993 58.5518 17.3281C58.3499 17.6569 58.0553 17.9092 57.668 18.085C57.2839 18.2607 56.8167 18.3486 56.2666 18.3486ZM62.7559 19.9404V17.4209C62.7559 17.2321 62.7217 17.0693 62.6533 16.9326C62.585 16.7959 62.4808 16.6901 62.3408 16.6152C62.2041 16.5404 62.0316 16.5029 61.8232 16.5029C61.6312 16.5029 61.4652 16.5355 61.3252 16.6006C61.1852 16.6657 61.0762 16.7536 60.998 16.8643C60.9199 16.9749 60.8809 17.1003 60.8809 17.2402H59.709C59.709 17.0319 59.7594 16.8301 59.8604 16.6348C59.9613 16.4395 60.1077 16.2653 60.2998 16.1123C60.4919 15.9593 60.7214 15.8389 60.9883 15.751C61.2552 15.6631 61.5547 15.6191 61.8867 15.6191C62.2839 15.6191 62.6354 15.6859 62.9414 15.8193C63.2507 15.9528 63.4932 16.1546 63.6689 16.4248C63.848 16.6917 63.9375 17.027 63.9375 17.4307V19.7793C63.9375 20.0202 63.9538 20.2367 63.9863 20.4287C64.0221 20.6175 64.0726 20.7819 64.1377 20.9219V21H62.9316C62.8763 20.873 62.8324 20.7119 62.7998 20.5166C62.7705 20.318 62.7559 20.126 62.7559 19.9404ZM62.9268 17.7871L62.9365 18.5146H62.0918C61.8737 18.5146 61.6816 18.5358 61.5156 18.5781C61.3496 18.6172 61.2113 18.6758 61.1006 18.7539C60.9899 18.832 60.9069 18.9264 60.8516 19.0371C60.7962 19.1478 60.7686 19.2731 60.7686 19.4131C60.7686 19.5531 60.8011 19.6816 60.8662 19.7988C60.9313 19.9128 61.0257 20.0023 61.1494 20.0674C61.2764 20.1325 61.4294 20.165 61.6084 20.165C61.8493 20.165 62.0592 20.1162 62.2383 20.0186C62.4206 19.9176 62.5638 19.7956 62.668 19.6523C62.7721 19.5059 62.8275 19.3675 62.834 19.2373L63.2148 19.7598C63.1758 19.8932 63.109 20.0365 63.0146 20.1895C62.9202 20.3424 62.7965 20.4889 62.6436 20.6289C62.4938 20.7656 62.3132 20.8779 62.1016 20.9658C61.8932 21.0537 61.6523 21.0977 61.3789 21.0977C61.0339 21.0977 60.7262 21.0293 60.4561 20.8926C60.1859 20.7526 59.9743 20.5654 59.8213 20.3311C59.6683 20.0934 59.5918 19.8249 59.5918 19.5254C59.5918 19.2454 59.6439 18.998 59.748 18.7832C59.8555 18.5651 60.0117 18.3828 60.2168 18.2363C60.4251 18.0898 60.679 17.9792 60.9785 17.9043C61.278 17.8262 61.6198 17.7871 62.0039 17.7871H62.9268ZM68.1318 19.5693C68.1318 19.4521 68.1025 19.3464 68.0439 19.252C67.9854 19.1543 67.873 19.0664 67.707 18.9883C67.5443 18.9102 67.3034 18.8385 66.9844 18.7734C66.7044 18.7116 66.4473 18.6383 66.2129 18.5537C65.9818 18.4658 65.7832 18.36 65.6172 18.2363C65.4512 18.1126 65.3226 17.9661 65.2314 17.7969C65.1403 17.6276 65.0947 17.4323 65.0947 17.2109C65.0947 16.9961 65.1419 16.7926 65.2363 16.6006C65.3307 16.4085 65.4658 16.2393 65.6416 16.0928C65.8174 15.9463 66.0306 15.8307 66.2812 15.7461C66.5352 15.6615 66.8184 15.6191 67.1309 15.6191C67.5736 15.6191 67.9528 15.694 68.2686 15.8438C68.5876 15.9902 68.8317 16.1904 69.001 16.4443C69.1702 16.695 69.2549 16.9782 69.2549 17.2939H68.0781C68.0781 17.154 68.0423 17.0238 67.9707 16.9033C67.9023 16.7796 67.7982 16.6803 67.6582 16.6055C67.5182 16.5273 67.3424 16.4883 67.1309 16.4883C66.929 16.4883 66.7614 16.5208 66.6279 16.5859C66.4977 16.6478 66.4001 16.7292 66.335 16.8301C66.2731 16.931 66.2422 17.0417 66.2422 17.1621C66.2422 17.25 66.2585 17.3298 66.291 17.4014C66.3268 17.4697 66.3854 17.5332 66.4668 17.5918C66.5482 17.6471 66.6589 17.6992 66.7988 17.748C66.9421 17.7969 67.1211 17.8441 67.3359 17.8896C67.7396 17.9743 68.0863 18.0833 68.376 18.2168C68.6689 18.347 68.8936 18.5163 69.0498 18.7246C69.2061 18.9297 69.2842 19.1901 69.2842 19.5059C69.2842 19.7402 69.2337 19.9551 69.1328 20.1504C69.0352 20.3424 68.8919 20.5101 68.7031 20.6533C68.5143 20.7933 68.2881 20.9023 68.0244 20.9805C67.764 21.0586 67.471 21.0977 67.1455 21.0977C66.667 21.0977 66.2617 21.013 65.9297 20.8438C65.5977 20.6712 65.3454 20.4515 65.1729 20.1846C65.0036 19.9144 64.9189 19.6344 64.9189 19.3447H66.0566C66.0697 19.5628 66.1299 19.737 66.2373 19.8672C66.348 19.9941 66.4847 20.0869 66.6475 20.1455C66.8135 20.2008 66.9844 20.2285 67.1602 20.2285C67.3717 20.2285 67.5492 20.2008 67.6924 20.1455C67.8356 20.0869 67.9447 20.0088 68.0195 19.9111C68.0944 19.8102 68.1318 19.6963 68.1318 19.5693ZM73.2783 19.5693C73.2783 19.4521 73.249 19.3464 73.1904 19.252C73.1318 19.1543 73.0195 19.0664 72.8535 18.9883C72.6908 18.9102 72.4499 18.8385 72.1309 18.7734C71.8509 18.7116 71.5938 18.6383 71.3594 18.5537C71.1283 18.4658 70.9297 18.36 70.7637 18.2363C70.5977 18.1126 70.4691 17.9661 70.3779 17.7969C70.2868 17.6276 70.2412 17.4323 70.2412 17.2109C70.2412 16.9961 70.2884 16.7926 70.3828 16.6006C70.4772 16.4085 70.6123 16.2393 70.7881 16.0928C70.9639 15.9463 71.1771 15.8307 71.4277 15.7461C71.6816 15.6615 71.9648 15.6191 72.2773 15.6191C72.7201 15.6191 73.0993 15.694 73.415 15.8438C73.734 15.9902 73.9782 16.1904 74.1475 16.4443C74.3167 16.695 74.4014 16.9782 74.4014 17.2939H73.2246C73.2246 17.154 73.1888 17.0238 73.1172 16.9033C73.0488 16.7796 72.9447 16.6803 72.8047 16.6055C72.6647 16.5273 72.4889 16.4883 72.2773 16.4883C72.0755 16.4883 71.9079 16.5208 71.7744 16.5859C71.6442 16.6478 71.5465 16.7292 71.4814 16.8301C71.4196 16.931 71.3887 17.0417 71.3887 17.1621C71.3887 17.25 71.4049 17.3298 71.4375 17.4014C71.4733 17.4697 71.5319 17.5332 71.6133 17.5918C71.6947 17.6471 71.8053 17.6992 71.9453 17.748C72.0885 17.7969 72.2676 17.8441 72.4824 17.8896C72.8861 17.9743 73.2327 18.0833 73.5225 18.2168C73.8154 18.347 74.04 18.5163 74.1963 18.7246C74.3525 18.9297 74.4307 19.1901 74.4307 19.5059C74.4307 19.7402 74.3802 19.9551 74.2793 20.1504C74.1816 20.3424 74.0384 20.5101 73.8496 20.6533C73.6608 20.7933 73.4346 20.9023 73.1709 20.9805C72.9105 21.0586 72.6175 21.0977 72.292 21.0977C71.8135 21.0977 71.4082 21.013 71.0762 20.8438C70.7441 20.6712 70.4919 20.4515 70.3193 20.1846C70.1501 19.9144 70.0654 19.6344 70.0654 19.3447H71.2031C71.2161 19.5628 71.2764 19.737 71.3838 19.8672C71.4945 19.9941 71.6312 20.0869 71.7939 20.1455C71.96 20.2008 72.1309 20.2285 72.3066 20.2285C72.5182 20.2285 72.6956 20.2008 72.8389 20.1455C72.9821 20.0869 73.0911 20.0088 73.166 19.9111C73.2409 19.8102 73.2783 19.6963 73.2783 19.5693Z" fill="#47A359"/>
<mask id="mask0_601_1368" style="mask-type:alpha" maskUnits="userSpaceOnUse" x="9" y="7" width="20" height="20">
<rect x="9" y="7" width="20" height="20" fill="#D9D9D9"/>
</mask>
<g mask="url(#mask0_601_1368)">
<path d="M26.9232 12.6334C26.6018 12.3866 26.1637 12.3546 25.8096 12.552L22.3241 14.4612L20.3576 10.1061C20.1916 9.73738 19.8242 9.5 19.4201 9.5C19.0153 9.5 18.6486 9.73738 18.4818 10.1061L16.5153 14.4612L13.0218 12.552C12.6664 12.358 12.2303 12.39 11.9076 12.6347C11.5848 12.8788 11.4355 13.2902 11.5262 13.6849L13.1952 20.956C12.5511 21.3454 12.2423 22.1135 12.439 22.8404C12.6351 23.5665 13.2886 24.0753 14.0414 24.0867H24.8085H24.8078C25.5606 24.0753 26.2141 23.5665 26.4102 22.8397C26.6062 22.1135 26.2975 21.3447 25.6533 20.956L27.3064 13.6824C27.3991 13.2876 27.2484 12.8755 26.9229 12.6335L26.9232 12.6334ZM25.4155 22.4028C25.4175 22.7409 25.1461 23.017 24.808 23.0203H14.041C13.7082 23.009 13.4435 22.7362 13.4435 22.4028C13.4435 22.0694 13.7082 21.7967 14.041 21.786H24.808C25.1428 21.796 25.4108 22.0681 25.4155 22.4028ZM24.6133 20.7191H14.2356L12.5846 13.5288L16.04 15.4172C16.2914 15.5545 16.5881 15.5805 16.8602 15.4899C17.1316 15.3985 17.353 15.1985 17.471 14.9377L19.4194 10.6214L21.3679 14.937C21.4859 15.1984 21.7079 15.3985 21.9793 15.4892C22.2514 15.5805 22.5488 15.5539 22.8002 15.4158L26.2476 13.528L24.6133 20.7191Z" fill="#47A359"/>
</g>
</svg>
