<svg width="70" height="70" viewBox="0 0 70 70" fill="none" xmlns="http://www.w3.org/2000/svg">
<rect width="70" height="70" rx="35" fill="#FCF9E8" fill-opacity="0.6"/>
<mask id="mask0_652_844" style="mask-type:alpha" maskUnits="userSpaceOnUse" x="15" y="15" width="40" height="40">
<rect x="15" y="15" width="40" height="40" fill="#D9D9D9"/>
</mask>
<g mask="url(#mask0_652_844)">
<path d="M18 36.8699V39.1859C18 40.5635 19.1208 41.6843 20.4984 41.6843H20.5334L20.182 43.7428C20.123 44.0867 20.3878 44.4027 20.7382 44.4027H23.4246V49.6716C23.4246 50.6653 24.2328 51.4734 25.2268 51.4734H25.245C26.2389 51.4734 27.0471 50.6653 27.0471 49.6716V44.4027H28.8355C29.1904 44.4027 29.4568 44.0791 29.3895 43.7312L28.3295 38.2422L28.3559 38.2487C28.5417 38.2953 28.7285 38.3176 28.9121 38.3176C29.7969 38.3176 30.6172 37.7997 30.9827 36.9573L31.807 35.0777L37.1681 35.0143C37.9267 35.0051 38.6175 34.5978 39.0008 33.9492L41.5564 44.8272C41.6493 45.2223 42.1092 45.3868 42.4312 45.1596L44.2097 43.9053V49.3976C44.2097 50.5409 45.1425 51.471 46.2886 51.471C47.474 51.471 48.3614 50.5053 48.3614 49.3976V40.9771L52.7607 37.8744C52.8902 37.7831 52.9751 37.642 52.9955 37.4852C53.0153 37.3283 52.969 37.1701 52.8671 37.0494L43.0933 25.4468C41.7934 23.9156 39.472 23.6992 37.919 24.9644C37.0391 25.6816 36.7007 26.8798 37.0755 27.9422L37.2325 28.3983L35.8544 31.0985L31.125 30.961C31.1195 30.9607 31.0693 30.9602 31.0638 30.9602C30.0042 30.9602 29.1222 31.7554 29.0124 32.81C29.0078 32.8545 29.0144 32.8984 29.0128 32.9429C29.0019 32.9637 28.9903 32.9842 28.981 33.0052L28.1133 34.9137L27.6587 34.7904L27.5934 34.4459C27.3326 33.0876 26.1389 32.0432 24.6788 32.0432C23.7496 32.0432 22.8953 32.4739 22.3465 33.1914L20.854 33.4589C19.2001 33.7552 18 35.1896 18 36.8699ZM25.9181 49.6716C25.9181 50.0426 25.616 50.3444 25.245 50.3444H25.2268C24.8558 50.3444 24.5537 50.0426 24.5537 49.6716V44.4027H25.9181V49.6716ZM47.2324 49.3976C47.2324 49.8873 46.8416 50.3419 46.2886 50.3419C45.7649 50.3419 45.3387 49.9183 45.3387 49.3976V43.109L47.2324 41.7734V49.3976ZM38.6324 25.8393C39.7118 24.96 41.3265 25.1102 42.2317 26.1759L51.6074 37.3063L42.4643 43.7546L39.8071 32.4438L41.4544 29.3383C42.0194 28.2731 41.5671 26.952 40.4747 26.4532C39.6486 26.0748 38.674 26.2719 38.0622 26.9409C38.0936 26.5204 38.2911 26.1177 38.6324 25.8393ZM30.136 32.9269C30.185 32.4495 30.5842 32.0895 31.0913 32.0895L36.1786 32.2375C36.3997 32.256 36.5992 32.1242 36.6979 31.9299L38.7448 27.9185C38.9736 27.4703 39.5414 27.2668 40.005 27.4799C40.5125 27.7114 40.7167 28.3209 40.4565 28.8093L38.7285 32.0669L38.0557 33.3354C37.8787 33.67 37.5331 33.8806 37.1544 33.8853L31.0759 33.9572L31.0731 34.0917C31.0705 34.094 31.067 34.095 31.0643 34.0974V33.9572C30.7964 33.9572 30.5505 33.8478 30.3708 33.6485C30.1916 33.4495 30.1078 33.1932 30.136 32.9269ZM28.2809 36.1293C28.5455 36.1996 28.8278 36.07 28.9424 35.8178L29.5708 34.4391C29.8501 34.7334 30.2066 34.937 30.5958 35.0283L29.948 36.5061C29.7258 37.016 29.1712 37.2886 28.6282 37.153C28.3225 37.0778 24.8195 36.2161 24.9897 36.258C24.7428 36.1957 24.5807 35.9501 24.6193 35.7026C24.6653 35.4218 24.9419 35.2252 25.2373 35.3029L28.2809 36.1293ZM24.6788 33.1722C25.4792 33.1722 26.1833 33.682 26.427 34.4561L25.5333 34.2136C24.6099 33.9626 23.6631 34.5631 23.5046 35.5234C23.3734 36.3589 23.8927 37.1453 24.7168 37.3537L27.1228 37.9454L28.1513 43.2736C24.3464 43.2734 23.1027 43.2736 21.408 43.2736L22.87 34.705C23.0202 33.8354 23.766 33.1722 24.6788 33.1722ZM21.778 34.4405C21.773 34.4661 21.762 34.4884 21.7576 34.5143L20.7262 40.5553H20.4984C19.7432 40.5553 19.129 39.9409 19.129 39.1859V36.8699C19.129 35.737 19.9383 34.7701 21.0536 34.5703L21.778 34.4405Z" fill="black"/>
<path d="M24.1456 31.604C25.6139 31.604 26.8041 30.5172 27.0117 29.1574C27.309 27.2235 25.6682 25.533 23.6908 25.8362C22.4598 26.0247 21.468 27.0165 21.2789 28.2478C21.0054 30.0355 22.3799 31.6034 24.1456 31.604ZM22.3947 28.4189C22.5078 27.6819 23.1246 27.065 23.8617 26.952C25.0569 26.7699 26.0817 27.7756 25.8959 28.9865C25.7752 29.7738 25.0664 30.475 24.1456 30.475C23.0946 30.475 22.2228 29.5469 22.3947 28.4189Z" fill="black"/>
<path d="M38.9806 21.6299C38.9806 19.6285 37.3521 18 35.3509 18C33.3492 18 31.7207 19.6285 31.7207 21.6299C31.7207 23.6314 33.3492 25.2599 35.3509 25.2599C37.3521 25.2599 38.9806 23.6314 38.9806 21.6299ZM32.8497 21.6299C32.8497 20.2509 33.9716 19.129 35.3509 19.129C36.7297 19.129 37.8515 20.2509 37.8515 21.6299C37.8515 23.009 36.7297 24.1308 35.3509 24.1308C33.9716 24.1308 32.8497 23.009 32.8497 21.6299Z" fill="black"/>
</g>
</svg>
