<svg width="20" height="20" viewBox="0 0 20 20" fill="none" xmlns="http://www.w3.org/2000/svg">
<path d="M17.0747 17.0747C13.1742 20.9751 6.8258 20.9751 2.92534 17.0747C-0.975115 13.1737 -0.975115 6.82633 2.92534 2.92534C4.87557 0.975119 7.43804 5.72205e-06 10 5.72205e-06C12.562 5.72205e-06 15.1244 0.975119 17.0747 2.92534C20.9751 6.82632 20.9751 13.1737 17.0747 17.0747ZM16.3208 3.6792C12.8353 0.194197 7.16473 0.195236 3.6792 3.6792C0.194718 7.16473 0.194718 12.8353 3.6792 16.3208C5.42222 18.0633 7.71085 18.9343 10 18.9343C12.2886 18.9343 14.5783 18.0628 16.3208 16.3208C19.8053 12.8353 19.8053 7.16473 16.3208 3.6792ZM10.3322 11.3718C10.4613 11.2557 10.5258 11.0964 10.5258 10.8944V5.76583C10.5258 5.56383 10.4602 5.40504 10.329 5.28895C10.1978 5.17285 10.0443 5.11454 9.86777 5.11454C9.68711 5.11454 9.53457 5.17025 9.40962 5.28218C9.28519 5.39411 9.22272 5.5555 9.22272 5.76583V10.8944C9.22272 11.0964 9.28832 11.2557 9.41951 11.3718C9.5507 11.4879 9.70429 11.5457 9.88077 11.5457C10.0526 11.5457 10.203 11.4879 10.3322 11.3718ZM10.4613 14.2748C10.6076 14.1327 10.6804 13.9478 10.6804 13.7198C10.6804 13.4918 10.6065 13.308 10.4581 13.1685C10.3098 13.0284 10.1151 12.9587 9.87401 12.9587C9.63348 12.9587 9.43774 13.0284 9.28728 13.1685C9.13682 13.308 9.06133 13.4918 9.06133 13.7198C9.06133 13.9478 9.13682 14.1327 9.28728 14.2748C9.43774 14.4164 9.63557 14.4872 9.88078 14.4872C10.1213 14.4872 10.315 14.4164 10.4613 14.2748Z" fill="black"/>
</svg>
