<svg width="16" height="20" viewBox="0 0 16 20" fill="none" xmlns="http://www.w3.org/2000/svg">
<path d="M8 8.75293C11.8099 8.75293 15.0093 11.6054 15.4824 15.3584C15.5669 16.0276 15.3435 16.5905 14.8613 17.0791C14.3642 17.5827 13.5901 18.0051 12.6055 18.3213C9.94806 19.1743 6.05388 19.1743 3.39551 18.3213C2.41025 18.0051 1.63577 17.5827 1.13867 17.0791C0.656526 16.5905 0.433506 16.0276 0.517578 15.3584C0.991562 11.6048 4.19024 8.75311 8 8.75293ZM8 0.5C10.5659 0.5 11.8594 3.61989 10.0439 5.43457C8.2284 7.24963 5.11053 5.95599 5.11035 3.39062C5.11035 1.79497 6.40367 0.500198 8 0.5Z" stroke="black"/>
</svg>
