<svg width="19" height="22" viewBox="0 0 19 22" fill="none" xmlns="http://www.w3.org/2000/svg">
<path d="M14.8929 6.77399C14.8929 5.21984 14.3038 3.72935 13.2552 2.6304C12.2066 1.53145 10.7843 0.914063 9.30137 0.914062C7.8184 0.914063 6.39617 1.53145 5.34755 2.6304C4.29894 3.72935 3.70983 5.21984 3.70983 6.77399C3.70983 13.6106 0.914062 15.5639 0.914062 15.5639H17.6887C17.6887 15.5639 14.8929 13.6106 14.8929 6.77399Z" stroke="white" stroke-width="1.83084" stroke-linecap="round" stroke-linejoin="round"/>
<path d="M10.9276 19.4688C10.7637 19.7648 10.5286 20.0105 10.2456 20.1812C9.96267 20.352 9.64188 20.4419 9.31535 20.4419C8.98882 20.4419 8.66803 20.352 8.38508 20.1812C8.10213 20.0105 7.86697 19.7648 7.70312 19.4688" fill="white"/>
<path d="M10.9276 19.4688C10.7637 19.7648 10.5286 20.0105 10.2456 20.1812C9.96267 20.352 9.64188 20.4419 9.31535 20.4419C8.98882 20.4419 8.66803 20.352 8.38508 20.1812C8.10213 20.0105 7.86697 19.7648 7.70312 19.4688" stroke="white" stroke-width="1.83084" stroke-linecap="round" stroke-linejoin="round"/>
</svg>
