<svg width="23" height="23" viewBox="0 0 23 23" fill="none" xmlns="http://www.w3.org/2000/svg">
<mask id="mask0_20_3620" style="mask-type:alpha" maskUnits="userSpaceOnUse" x="0" y="0" width="23" height="23">
<rect width="22.8" height="22.8" fill="#D9D9D9"/>
</mask>
<g mask="url(#mask0_20_3620)">
<path fill-rule="evenodd" clip-rule="evenodd" d="M2.84799 7.01622C2.8219 4.8656 4.32013 3.54127 6.2322 2.9267C7.02516 2.67156 7.82685 3.0695 8.19948 3.79216L9.33168 5.9862C10.1442 7.562 8.80182 8.06501 8.13571 9.05811C8.02698 9.21975 7.94436 9.35603 7.9574 9.3785C9.36357 11.7676 11.0271 13.4311 13.4161 14.8372C13.5285 14.9032 14.415 14.0762 14.4744 14.016C15.2195 13.2665 15.795 12.9403 16.8083 13.4629L19.0024 14.5951C19.7243 14.9677 20.1223 15.7694 19.8678 16.5624C19.2532 18.4746 17.9289 19.9728 15.7783 19.9466C10.656 19.8843 2.91108 12.1395 2.84799 7.01622ZM11.9969 9.10801C12.9305 9.10801 13.6872 9.86473 13.6872 10.7983C13.6872 11.5022 14.7564 11.5022 14.7564 10.7983C14.7564 9.27473 13.5213 8.0389 11.9969 8.0389C11.2931 8.03962 11.2931 9.10801 11.9969 9.10801ZM11.9969 6.51243C14.3643 6.51243 16.2829 8.43109 16.2829 10.7984C16.2829 11.5023 17.3521 11.5023 17.3521 10.7984C17.3521 7.84102 14.9543 5.44343 11.9971 5.44343C11.2932 5.44415 11.2931 6.51243 11.9969 6.51243ZM11.9969 3.91684C15.7979 3.91684 18.8785 6.99747 18.8785 10.7984C18.8785 11.5023 19.9477 11.5023 19.9477 10.7984C19.9477 6.4074 16.3879 2.84766 11.9969 2.84766C11.293 2.84838 11.2931 3.91684 11.9969 3.91684ZM4.54343 5.17661C1.00039 9.37987 13.4153 21.795 17.6188 18.252C18.1892 17.7714 18.593 17.0509 18.8546 16.2377C18.9467 15.9521 18.7763 15.6789 18.5154 15.5441L16.3214 14.4118C15.8495 14.1683 15.7321 14.2654 15.2312 14.7685C14.7043 15.2983 13.7112 16.2471 12.8783 15.7564C10.3132 14.2459 8.54965 12.4823 7.03902 9.9171C6.35695 8.75881 8.34155 7.47144 8.50246 6.96339C8.53798 6.85176 8.50246 6.70463 8.38359 6.47485L7.25139 4.28081C7.11657 4.01988 6.84258 3.85026 6.55772 3.94159C5.74518 4.20253 5.02464 4.60617 4.54343 5.17661Z" fill="black"/>
</g>
</svg>
