<svg width="18" height="18" viewBox="0 0 18 18" fill="none" xmlns="http://www.w3.org/2000/svg">
<path d="M9 0C4.03689 0 0 4.03689 0 9C0 13.9631 4.03689 18 9 18C13.9631 18 18 13.9631 18 9C18 4.03689 13.9631 0 9 0ZM12.5488 11.1083C12.9607 11.5202 12.9607 12.163 12.5488 12.5738C12.3429 12.7546 12.0858 12.8571 11.8286 12.8571C11.5715 12.8571 11.3143 12.7546 11.1084 12.5487L9.00005 10.4655L6.89169 12.5738C6.68577 12.7546 6.42862 12.8571 6.17148 12.8571C5.91434 12.8571 5.6572 12.7546 5.45127 12.5487C5.03943 12.1369 5.03943 11.494 5.45127 11.0832L7.55964 8.97485L5.45127 6.86649C5.03943 6.45465 5.03943 5.81179 5.45127 5.40098C5.86312 4.98914 6.50597 4.98914 6.91678 5.40098L9.02515 7.50934L11.1335 5.40098C11.5454 4.98914 12.1882 4.98914 12.599 5.40098C13.0109 5.81282 13.0109 6.45567 12.599 6.86649L10.4655 8.99998L12.5488 11.1083Z" fill="#B6BCC8"/>
</svg>
