<svg width="12" height="8" viewBox="0 0 12 8" fill="none" xmlns="http://www.w3.org/2000/svg">
<path d="M11.2852 2.48517C11.2872 2.51805 11.2843 2.55105 11.2765 2.58306L10.5519 5.48148C10.5341 5.55245 10.4932 5.61549 10.4357 5.66066C10.3781 5.70583 10.3072 5.73056 10.234 5.73096L5.88638 5.75292H1.53704C1.46354 5.75291 1.39215 5.72831 1.33424 5.68305C1.27633 5.63778 1.23522 5.57445 1.21747 5.50313L0.492862 2.59373C0.484825 2.56087 0.481907 2.52696 0.484211 2.49321C0.203899 2.4049 0 2.14259 0 1.83347C0 1.45206 0.310262 1.1418 0.691667 1.1418C1.07307 1.1418 1.38333 1.45206 1.38333 1.83347C1.38333 2.04826 1.28492 2.24043 1.13082 2.36739L2.03803 3.28145C2.26731 3.51249 2.58547 3.64493 2.91098 3.64493C3.29585 3.64493 3.66281 3.46216 3.89389 3.15594L5.38482 1.18045C5.32048 1.11635 5.26944 1.04018 5.23464 0.956296C5.19983 0.872415 5.18195 0.782482 5.18202 0.691667C5.18202 0.310262 5.49228 0 5.87368 0C6.25509 0 6.56535 0.310262 6.56535 0.691667C6.56535 0.876639 6.49192 1.04453 6.37322 1.16876C6.37362 1.16929 6.3741 1.16973 6.3745 1.1703L7.85462 3.15124C8.08562 3.4604 8.45389 3.64498 8.83986 3.64498C9.16835 3.64498 9.47725 3.51705 9.70952 3.28474L10.6224 2.37183C10.4651 2.24491 10.364 2.05089 10.364 1.83347C10.364 1.45206 10.6743 1.1418 11.0557 1.1418C11.4371 1.1418 11.7474 1.45206 11.7474 1.83347C11.7474 2.13433 11.5539 2.39023 11.2852 2.48517ZM10.4812 6.78493C10.4812 6.69758 10.4465 6.6138 10.3847 6.55203C10.3229 6.49026 10.2391 6.45556 10.1518 6.45556H1.6322C1.54485 6.45556 1.46107 6.49026 1.39931 6.55203C1.33754 6.6138 1.30284 6.69758 1.30284 6.78493V7.57541C1.30284 7.66276 1.33754 7.74653 1.39931 7.8083C1.46107 7.87007 1.54485 7.90477 1.6322 7.90477H10.1518C10.2391 7.90477 10.3229 7.87007 10.3847 7.8083C10.4465 7.74653 10.4812 7.66276 10.4812 7.57541V6.78493Z" fill="black"/>
</svg>
