<svg width="18" height="18" viewBox="0 0 18 18" fill="none" xmlns="http://www.w3.org/2000/svg">
<path fill-rule="evenodd" clip-rule="evenodd" d="M9.76077 0.812814C9.76077 0.363605 9.39628 0 8.94707 0C8.49786 0 8.13338 0.363605 8.13338 0.812814V1.85332C4.84073 2.22661 2.22655 4.83983 1.85332 8.13338H0.813695C0.364486 8.13338 0 8.49698 0 8.94619C0 9.3954 0.364486 9.75989 0.813695 9.75989H1.85332C2.22661 13.0525 4.84073 15.6667 8.13338 16.0399V17.0796C8.13338 17.5288 8.49786 17.8933 8.94707 17.8933C9.39628 17.8933 9.76077 17.5288 9.76077 17.0796V16.0399C13.0534 15.6666 15.6667 13.0525 16.0408 9.75989H17.0805C17.5297 9.75989 17.8941 9.3954 17.8941 8.94619C17.8941 8.49698 17.5297 8.13338 17.0805 8.13338H16.0408C15.6666 4.83983 13.0534 2.22654 9.76077 1.85332V0.812814ZM14.4593 8.94615C14.4593 5.90134 11.9918 3.43401 8.94721 3.43401C5.90263 3.43401 3.43507 5.90157 3.43507 8.94615C3.43507 11.9909 5.90263 14.4592 8.94721 14.4592C11.9918 14.4592 14.4593 11.9907 14.4593 8.94615ZM8.94721 7.50058C8.14851 7.50058 7.50164 8.14748 7.50164 8.94615C7.50164 9.74484 8.14854 10.3926 8.94721 10.3926C9.74588 10.3926 10.3928 9.74482 10.3928 8.94615C10.3928 8.14745 9.74588 7.50058 8.94721 7.50058ZM5.87416 8.94615C5.87416 7.24906 7.25001 5.87401 8.94721 5.87401C10.6444 5.87401 12.0203 7.24897 12.0203 8.94615C12.0203 10.6433 10.6444 12.0192 8.94721 12.0192C7.25001 12.0192 5.87416 10.6433 5.87416 8.94615Z" fill="black"/>
</svg>
