<svg width="18" height="18" viewBox="0 0 18 18" fill="none" xmlns="http://www.w3.org/2000/svg">
<path d="M15.3786 7.33742C14.9625 7.33742 14.5838 7.5084 14.3082 7.78323C14.0334 8.05806 13.8624 8.43677 13.8624 8.85363V10.7846C13.8624 11.2008 14.0334 11.5795 14.3082 11.855C14.3725 11.9186 14.441 11.9765 14.5152 12.0288L14.5173 12.0302L14.523 12.0345C14.7667 12.2019 15.0614 12.3001 15.3772 12.3001C15.7933 12.3001 16.1727 12.1292 16.4476 11.8543C16.7224 11.5795 16.8934 11.2008 16.8934 10.7839V8.85294C16.8934 8.43679 16.7224 8.0581 16.4476 7.78254C16.1728 7.5077 15.794 7.33673 15.3772 7.33673L15.3786 7.33742ZM8.08007 14.3476H10.0434C10.4631 14.3476 10.8446 14.5193 11.1202 14.7956C11.3018 14.9772 11.4381 15.204 11.5102 15.4576H12.5551C12.9974 15.4576 13.2998 15.3057 13.4969 15.0775C13.7647 14.7673 13.8679 14.3067 13.8679 13.8721V12.5771C13.817 12.534 13.7682 12.4895 13.7209 12.4421C13.2963 12.0175 13.032 11.4304 13.032 10.7853V8.85431C13.032 8.20855 13.2956 7.62213 13.7209 7.19679C13.7506 7.16712 13.781 7.13815 13.8127 7.11059C13.6347 5.94057 13.0476 4.8998 12.2026 4.14032C11.3152 3.34194 10.143 2.85514 8.86205 2.85514C7.58183 2.85514 6.40962 3.34264 5.52154 4.14032C4.67652 4.89984 4.08869 5.94126 3.91136 7.11059C3.94245 7.13885 3.97354 7.16782 4.00321 7.19679C4.42785 7.62142 4.69208 8.20855 4.69208 8.85431V10.7853C4.69208 11.4311 4.42855 12.0175 4.00321 12.4421C3.57858 12.8668 2.99145 13.131 2.34639 13.131C1.70063 13.131 1.11421 12.8675 0.688868 12.4421C0.264235 12.0175 0 11.4304 0 10.7853V8.85431C0 8.20855 0.26353 7.62213 0.688868 7.19679C0.80262 7.08304 0.928378 6.98059 1.06403 6.89157C1.30143 4.98175 2.2298 3.27902 3.58918 2.04548C4.9867 0.776554 6.83926 0 8.86267 0C10.8868 0 12.7388 0.775776 14.1362 2.04548C15.4948 3.27908 16.4233 4.98175 16.6613 6.89157C16.797 6.98059 16.922 7.08233 17.0365 7.19679C17.4611 7.62142 17.7253 8.20855 17.7253 8.85431V10.7853C17.7253 11.4311 17.4618 12.0175 17.0365 12.4421C16.6118 12.8668 16.0247 13.131 15.379 13.131C15.143 13.131 14.9148 13.0957 14.6993 13.03V13.8721C14.6993 14.4776 14.5389 15.1389 14.1234 15.6194C13.7765 16.0207 13.2685 16.2885 12.5549 16.2885H11.51C11.4379 16.5421 11.3016 16.7689 11.12 16.9505C10.8438 17.2267 10.4629 17.3984 10.0433 17.3984H8.0799C7.66022 17.3984 7.27869 17.2268 7.00315 16.9505C6.7269 16.6742 6.5552 16.2927 6.5552 15.8737C6.5552 15.4541 6.72689 15.0725 7.00315 14.797C7.27939 14.5208 7.66092 14.3491 8.0799 14.3491L8.08007 14.3476ZM10.0434 15.1785H8.08007C7.88931 15.1785 7.71621 15.2569 7.58975 15.3827C7.46399 15.5085 7.38556 15.6823 7.38556 15.873C7.38556 16.0638 7.46399 16.2369 7.58975 16.3634C7.71551 16.4891 7.88931 16.5675 8.08007 16.5675H10.0434C10.2342 16.5675 10.4073 16.4891 10.5338 16.3634C10.6595 16.2376 10.7379 16.0638 10.7379 15.873C10.7379 15.6823 10.6595 15.5092 10.5338 15.3827C10.408 15.2569 10.2342 15.1785 10.0434 15.1785ZM3.15331 6.65007C3.41402 5.42141 4.06474 4.33328 4.96691 3.52153C6.00199 2.59033 7.36907 2.02227 8.8627 2.02227C10.3563 2.02227 11.7226 2.59102 12.7585 3.52153C13.6607 4.33334 14.3107 5.42213 14.5721 6.65007C14.8236 6.55751 15.0956 6.50593 15.3789 6.50593C15.5111 6.50593 15.6418 6.51724 15.7682 6.53843C15.4757 5.01656 14.6865 3.66348 13.5781 2.65675C12.3289 1.52278 10.6729 0.829586 8.86274 0.829586C7.05185 0.829586 5.39579 1.52339 4.14742 2.65675C3.03817 3.66355 2.24971 5.01658 1.95724 6.53843C2.08371 6.51724 2.21372 6.50593 2.34653 6.50593C2.62985 6.50593 2.90179 6.5568 3.15331 6.65007ZM3.41614 7.78263C3.1413 7.5078 2.76259 7.33682 2.34574 7.33682C1.92959 7.33682 1.55019 7.5078 1.27534 7.78263C1.00051 8.05747 0.829528 8.43617 0.829528 8.85303V10.784C0.829528 11.2002 1.00051 11.5789 1.27534 11.8544C1.55017 12.1292 1.92888 12.3002 2.34574 12.3002C2.76189 12.3002 3.14058 12.1292 3.41614 11.8544C3.69097 11.5796 3.86195 11.2009 3.86195 10.784V8.85303C3.86195 8.43688 3.69097 8.05819 3.41614 7.78263Z" fill="black"/>
</svg>
