<svg width="22" height="23" viewBox="0 0 22 23" fill="none" xmlns="http://www.w3.org/2000/svg">
<path d="M13.5333 14.2116C13.3724 14.2116 13.2123 14.1504 13.0891 14.028L11.0165 11.9553C10.8988 11.8376 10.8328 11.6775 10.8328 11.5111V7.3257C10.8328 6.9788 11.1138 6.69784 11.4607 6.69784C11.8076 6.69784 12.0886 6.9788 12.0886 7.3257V11.2514L13.9768 13.1396C14.2225 13.3853 14.2225 13.7824 13.9768 14.0273C13.8544 14.1497 13.6943 14.2109 13.5326 14.2109L13.5333 14.2116ZM20.0458 14.2116C20.1502 13.8812 19.9665 13.5281 19.6361 13.4237C19.3025 13.3201 18.9525 13.5037 18.8489 13.8333C17.8263 17.0755 14.8573 19.254 11.4607 19.254C7.19044 19.254 3.71683 15.7804 3.71683 11.5102C3.71683 8.11432 5.89555 5.1452 9.1375 4.12255C9.46869 4.01817 9.65156 3.66579 9.54719 3.33458C9.44359 3.00496 9.09278 2.82131 8.76 2.9249C4.99206 4.11391 2.46094 7.56401 2.46094 11.5108C2.46094 16.4732 6.49811 20.5103 11.4605 20.5103C15.4075 20.5103 18.8574 17.9784 20.0456 14.2113L20.0458 14.2116ZM20.4602 11.5111C20.4602 10.6047 20.3252 9.70839 20.0599 8.84822C19.9579 8.51703 19.6086 8.33259 19.2743 8.43305C18.9431 8.53586 18.7579 8.88746 18.8599 9.21866C19.0891 9.95954 19.2052 10.731 19.2052 11.5111C19.2052 11.858 19.4862 12.139 19.8331 12.139C20.18 12.139 20.4609 11.858 20.4609 11.5111L20.4602 11.5111ZM18.6213 7.12799C18.9023 6.92472 18.9667 6.53232 18.7634 6.25134C18.1936 5.4618 17.5045 4.77273 16.7143 4.20382C16.4325 4.00055 16.0401 4.06491 15.8376 4.34587C15.6351 4.62761 15.6987 5.02004 15.9797 5.22252C16.6609 5.71303 17.2542 6.30635 17.7447 6.98601C17.8672 7.15631 18.0594 7.24657 18.2549 7.24657C18.3812 7.24657 18.5099 7.20804 18.6213 7.12799ZM14.5387 3.69838C14.6408 3.36719 14.4556 3.01559 14.1244 2.91276C13.265 2.64671 12.3695 2.51172 11.4606 2.51172C11.1137 2.51172 10.8328 2.79268 10.8328 3.13958C10.8328 3.48647 11.1137 3.76743 11.4606 3.76743C12.2431 3.76743 13.0138 3.88359 13.7531 4.11196C13.8151 4.1308 13.8771 4.14021 13.9383 4.14021C14.2067 4.14021 14.4547 3.96755 14.5387 3.69758L14.5387 3.69838Z" fill="#3D3E4B"/>
</svg>
