<svg width="27" height="26" viewBox="0 0 27 26" fill="none" xmlns="http://www.w3.org/2000/svg">
<mask id="path-1-inside-1_1151_1068" fill="white">
<path d="M4.06836 14.1549C4.06836 12.3817 4.06836 11.495 4.43818 10.7157C4.80799 9.93633 5.50252 9.35932 6.89156 8.2053L8.23899 7.08585C10.7497 4.99997 12.005 3.95703 13.5004 3.95703C14.9957 3.95703 16.251 4.99997 18.7617 7.08585L20.1092 8.2053C21.4982 9.35932 22.1927 9.93633 22.5625 10.7157C22.9324 11.495 22.9324 12.3817 22.9324 14.1549V19.693C22.9324 22.1556 22.9324 23.3869 22.1431 24.152C21.3537 24.917 20.0834 24.917 17.5426 24.917H9.45807C6.91734 24.917 5.64697 24.917 4.85766 24.152C4.06836 23.3869 4.06836 22.1556 4.06836 19.693V14.1549Z"/>
</mask>
<path d="M15.8689 24.917C15.8689 25.4693 16.3166 25.917 16.8689 25.917C17.4212 25.917 17.8689 25.4693 17.8689 24.917H15.8689ZM9.13179 24.917C9.13179 25.4693 9.5795 25.917 10.1318 25.917C10.6841 25.917 11.1318 25.4693 11.1318 24.917H9.13179ZM11.4792 17.0809V18.0809H15.5215V17.0809V16.0809H11.4792V17.0809ZM16.8689 18.3869H15.8689V24.917H16.8689H17.8689V18.3869H16.8689ZM10.1318 18.3869H9.13179V24.917H10.1318H11.1318V18.3869H10.1318ZM15.5215 17.0809V18.0809C15.743 18.0809 15.8689 18.2471 15.8689 18.3869H16.8689H17.8689C17.8689 17.0842 16.7883 16.0809 15.5215 16.0809V17.0809ZM11.4792 17.0809V16.0809C10.2124 16.0809 9.13179 17.0842 9.13179 18.3869H10.1318H11.1318C11.1318 18.2471 11.2577 18.0809 11.4792 18.0809V17.0809ZM8.23899 7.08585L9.51706 8.62421L9.51706 8.62421L8.23899 7.08585ZM18.7617 7.08585L17.4837 8.62421L17.4837 8.62421L18.7617 7.08585ZM20.1092 8.2053L21.3872 6.66694L21.3872 6.66694L20.1092 8.2053ZM6.89156 8.2053L5.61349 6.66694L5.61349 6.66694L6.89156 8.2053ZM22.9324 14.1549H20.9324V19.693H22.9324H24.9324V14.1549H22.9324ZM17.5426 24.917V22.917H9.45807V24.917V26.917H17.5426V24.917ZM4.06836 19.693H6.06836V14.1549H4.06836H2.06836V19.693H4.06836ZM6.89156 8.2053L8.16963 9.74366L9.51706 8.62421L8.23899 7.08585L6.96092 5.5475L5.61349 6.66694L6.89156 8.2053ZM18.7617 7.08585L17.4837 8.62421L18.8311 9.74366L20.1092 8.2053L21.3872 6.66694L20.0398 5.5475L18.7617 7.08585ZM8.23899 7.08585L9.51706 8.62421C10.8116 7.5487 11.6431 6.86254 12.3287 6.42365C12.9662 6.0156 13.2765 5.95703 13.5004 5.95703L13.5004 3.95703L13.5004 1.95703C12.2289 1.95703 11.1639 2.41993 10.1721 3.05482C9.22854 3.65887 8.17707 4.53712 6.96092 5.5475L8.23899 7.08585ZM18.7617 7.08585L20.0398 5.5475C18.8237 4.53712 17.7722 3.65887 16.8286 3.05482C15.8368 2.41993 14.7718 1.95703 13.5004 1.95703L13.5004 3.95703L13.5004 5.95703C13.7242 5.95703 14.0346 6.0156 14.672 6.42365C15.3576 6.86254 16.1891 7.5487 17.4837 8.62421L18.7617 7.08585ZM9.45807 24.917V22.917C8.13286 22.917 7.33404 22.913 6.75953 22.8382C6.49476 22.8037 6.35809 22.7625 6.29299 22.7365C6.26349 22.7248 6.25157 22.7172 6.25029 22.7164C6.24965 22.716 6.25052 22.7167 6.24964 22.7159L4.85766 24.152L3.46569 25.5881C4.29604 26.3929 5.29816 26.6816 6.24264 26.8046C7.13582 26.921 8.24255 26.917 9.45807 26.917V24.917ZM4.06836 19.693H2.06836C2.06836 20.866 2.06384 21.9533 2.18599 22.8339C2.31703 23.7786 2.62662 24.7748 3.46569 25.5881L4.85766 24.152L6.24964 22.7159C6.24876 22.715 6.25139 22.7177 6.25384 22.7213C6.25596 22.7245 6.25144 22.7188 6.24237 22.6974C6.2218 22.6489 6.18225 22.5308 6.14806 22.2843C6.07288 21.7423 6.06836 20.9826 6.06836 19.693H4.06836ZM22.9324 19.693H20.9324C20.9324 20.9826 20.9278 21.7423 20.8527 22.2843C20.8185 22.5308 20.7789 22.6489 20.7584 22.6974C20.7493 22.7188 20.7448 22.7245 20.7469 22.7213C20.7493 22.7177 20.752 22.715 20.7511 22.7159L22.1431 24.152L23.535 25.5881C24.3741 24.7748 24.6837 23.7786 24.8147 22.8339C24.9369 21.9533 24.9324 20.866 24.9324 19.693H22.9324ZM17.5426 24.917V26.917C18.7582 26.917 19.8649 26.921 20.7581 26.8046C21.7026 26.6816 22.7047 26.3929 23.535 25.5881L22.1431 24.152L20.7511 22.7159C20.7502 22.7167 20.7511 22.716 20.7504 22.7164C20.7491 22.7172 20.7372 22.7248 20.7077 22.7365C20.6426 22.7625 20.506 22.8037 20.2412 22.8382C19.6667 22.913 18.8679 22.917 17.5426 22.917V24.917ZM22.9324 14.1549H24.9324C24.9324 12.5688 24.9773 11.1394 24.3694 9.85828L22.5625 10.7157L20.7557 11.5731C20.8874 11.8507 20.9324 12.1945 20.9324 14.1549H22.9324ZM20.1092 8.2053L18.8311 9.74366C20.3651 11.0181 20.6197 11.2866 20.7557 11.5731L22.5625 10.7157L24.3694 9.85828C23.7657 8.58602 22.6313 7.70056 21.3872 6.66694L20.1092 8.2053ZM4.06836 14.1549H6.06836C6.06836 12.1945 6.11335 11.8507 6.24507 11.5731L4.43818 10.7157L2.63128 9.85828C2.02337 11.1394 2.06836 12.5688 2.06836 14.1549H4.06836ZM6.89156 8.2053L5.61349 6.66694C4.36938 7.70056 3.23499 8.58602 2.63128 9.85828L4.43818 10.7157L6.24507 11.5731C6.38099 11.2866 6.63566 11.0181 8.16963 9.74366L6.89156 8.2053Z" fill="#FFCA20" mask="url(#path-1-inside-1_1151_1068)"/>
</svg>
