<svg width="17" height="22" viewBox="0 0 17 22" fill="none" xmlns="http://www.w3.org/2000/svg">
<path d="M8.18238 0C3.67005 0 0 3.67005 0 8.18237C0 9.78262 0.394644 10.9306 1.22561 12.159L7.71508 21.7521C7.76678 21.8284 7.83642 21.891 7.91788 21.9342C7.99934 21.9774 8.09016 22 8.18238 22C8.27459 22 8.36541 21.9774 8.44687 21.9342C8.52834 21.891 8.59797 21.8284 8.64967 21.7521L15.1391 12.159C15.9701 10.9306 16.3648 9.78262 16.3648 8.18237C16.3648 3.67005 12.6947 0 8.18238 0ZM8.18238 1.1286C12.0847 1.1286 15.2361 4.28 15.2361 8.18237C15.2361 9.61485 14.9546 10.4241 14.2045 11.5329L8.18238 20.4383L2.1602 11.5329C1.41022 10.4242 1.1286 9.61485 1.1286 8.18237C1.1286 4.28 4.28 1.1286 8.18238 1.1286ZM8.18238 3.95011C6.00747 3.95011 4.23226 5.72532 4.23226 7.90022C4.23226 10.0751 6.00747 11.8503 8.18238 11.8503C10.3573 11.8503 12.1325 10.0751 12.1325 7.90022C12.1325 5.72532 10.3573 3.95011 8.18238 3.95011ZM8.18238 5.07872C9.74733 5.07872 11.0039 6.33527 11.0039 7.90022C11.0039 9.46515 9.74733 10.7217 8.18238 10.7217C6.61743 10.7217 5.36087 9.46515 5.36087 7.90022C5.36087 6.33527 6.61743 5.07872 8.18238 5.07872Z" fill="black"/>
</svg>
