<svg width="18" height="19" viewBox="0 0 18 19" fill="none" xmlns="http://www.w3.org/2000/svg">
<path d="M9.08195 17.8974C9.08195 18.3402 8.72333 18.6989 8.28054 18.6989H2.93816C1.31731 18.6989 0 17.3815 0 15.7607V2.93816C0 1.31731 1.31731 0 2.93816 0H8.28054C8.72333 0 9.08195 0.358621 9.08195 0.801409C9.08195 1.2442 8.72333 1.60282 8.28054 1.60282H2.93816C2.20186 1.60282 1.60282 2.20186 1.60282 2.93816V15.7607C1.60282 16.497 2.20186 17.096 2.93816 17.096H8.28054C8.72333 17.096 9.08195 17.4547 9.08195 17.8974ZM17.3956 8.78344L14.1899 5.57781C13.8764 5.26424 13.3695 5.26424 13.0559 5.57781C12.7424 5.89137 12.7424 6.39824 13.0559 6.71181L14.8942 8.55005H6.50747C6.06468 8.55005 5.70606 8.90867 5.70606 9.35146C5.70606 9.79424 6.06468 10.1529 6.50747 10.1529H14.8942L13.0559 11.9911C12.7424 12.3047 12.7424 12.8115 13.0559 13.1251C13.2122 13.2814 13.4176 13.3605 13.6219 13.3605C13.8273 13.3605 14.0327 13.2824 14.1879 13.1251L17.3936 9.91947C17.7071 9.60591 17.7071 9.09903 17.3936 8.78547L17.3956 8.78344Z" fill="black"/>
</svg>
