<svg width="18" height="18" viewBox="0 0 18 18" fill="none" xmlns="http://www.w3.org/2000/svg">
<path d="M14.7356 0.000219324H5.16218C3.80667 0.000219324 2.71008 1.09775 2.71008 2.45232V2.7103H2.4521C1.09658 2.7103 0 3.80783 0 5.1624V11.0566C0 12.4122 1.09753 13.5087 2.4521 13.5087H3.03279L2.51681 16.6062C2.49496 16.7567 2.55967 16.9071 2.68908 16.9718C2.73194 16.9936 2.79665 17.0146 2.86136 17.0146C2.94708 17.0146 3.03363 16.9928 3.09835 16.9289L6.88514 13.5087H12.0264C13.3819 13.5087 14.4785 12.4112 14.4785 11.0566V10.7986H14.7365C16.092 10.7986 17.1886 9.70112 17.1886 8.34655L17.1877 2.45296C17.1877 1.09744 16.0902 0 14.7357 0L14.7356 0.000219324ZM13.7675 11.0796C13.7675 12.0477 12.9717 12.8435 12.0036 12.8435L6.77564 12.8444C6.71093 12.8444 6.66808 12.8444 6.62522 12.8662C6.62522 12.8662 6.60337 12.8662 6.60337 12.8881C6.58152 12.9099 6.53866 12.9099 6.51765 12.9309L3.35454 15.7488L3.76295 13.2319V13.2101V13.1672C3.76295 13.1454 3.76295 13.1243 3.7411 13.1025V13.0596C3.7411 13.0378 3.71925 13.0168 3.69824 12.9739C3.69824 12.9521 3.67639 12.9521 3.67639 12.9311L3.63353 12.8882C3.61168 12.8664 3.59067 12.8664 3.56882 12.8453C3.54697 12.8453 3.54697 12.8235 3.52596 12.8235C3.50411 12.8235 3.4831 12.8016 3.4831 12.8016H3.44025H3.4184H2.40744C1.43934 12.8016 0.643513 12.0058 0.643513 11.0377L0.644353 5.18543C0.644353 4.21733 1.44018 3.4215 2.40828 3.4215H11.9817C12.9498 3.4215 13.7457 4.21733 13.7457 5.18543V11.0797L13.7675 11.0796ZM16.4778 8.34763C16.4778 9.31573 15.682 10.1116 14.7139 10.1116H14.4559V5.18542C14.4559 3.8299 13.3584 2.73332 12.0038 2.73332H3.39843V2.47534C3.39843 1.50723 4.19425 0.711409 5.16235 0.711409H14.7358C15.7039 0.711409 16.4997 1.50723 16.4997 2.47534V8.34785L16.4778 8.34763Z" fill="black"/>
<path d="M3.53089 6.95312C2.88549 6.95312 2.34766 7.4691 2.34766 8.13636C2.34766 8.78176 2.86363 9.3196 3.53089 9.3196C4.17629 9.3196 4.71413 8.80362 4.71413 8.13636C4.69228 7.49096 4.17629 6.95312 3.53089 6.95312ZM3.53089 8.60948C3.2729 8.60948 3.05777 8.39435 3.05777 8.13636C3.05777 7.87837 3.2729 7.66324 3.53089 7.66324C3.78888 7.66324 4.00402 7.87837 4.00402 8.13636C4.00402 8.39435 3.78888 8.60948 3.53089 8.60948Z" fill="black"/>
<path d="M7.23011 6.95312C6.58471 6.95312 6.04688 7.4691 6.04688 8.13636C6.04688 8.78176 6.56285 9.3196 7.23011 9.3196C7.87551 9.3196 8.41335 8.80362 8.41335 8.13636C8.39234 7.49096 7.87551 6.95312 7.23011 6.95312ZM7.23011 8.60948C6.97212 8.60948 6.75699 8.39435 6.75699 8.13636C6.75699 7.87837 6.97212 7.66324 7.23011 7.66324C7.4881 7.66324 7.70323 7.87837 7.70323 8.13636C7.70323 8.39435 7.4881 8.60948 7.23011 8.60948Z" fill="black"/>
<path d="M10.9293 6.95312C10.2839 6.95312 9.74609 7.4691 9.74609 8.13636C9.74609 8.78176 10.2621 9.3196 10.9293 9.3196C11.5747 9.3196 12.1126 8.80362 12.1126 8.13636C12.0916 7.49096 11.5747 6.95312 10.9293 6.95312ZM10.9293 8.60948C10.6713 8.60948 10.4562 8.39435 10.4562 8.13636C10.4562 7.87837 10.6713 7.66324 10.9293 7.66324C11.1873 7.66324 11.4025 7.87837 11.4025 8.13636C11.4033 8.39435 11.1882 8.60948 10.9293 8.60948Z" fill="black"/>
</svg>
