<svg width="27" height="26" viewBox="0 0 27 26" fill="none" xmlns="http://www.w3.org/2000/svg">
<path d="M13.4526 3C12.2501 3 11.2691 3.99416 11.2691 5.19898V5.9415C8.8824 6.82605 7.18153 9.11911 7.18153 11.8103V16.793L5.93257 19.4221C5.88947 19.5129 5.87004 19.6131 5.87608 19.7134C5.88212 19.8137 5.91343 19.9108 5.96712 19.9958C6.0208 20.0807 6.09509 20.1507 6.18309 20.1992C6.27109 20.2477 6.36993 20.2731 6.47041 20.2731H10.2389C10.3641 21.9328 11.7599 23.2473 13.4526 23.2473C15.1453 23.2473 16.5412 21.9328 16.6663 20.2731H20.4348C20.5353 20.2731 20.6341 20.2477 20.7221 20.1992C20.8101 20.1507 20.8844 20.0807 20.9381 19.9958C20.9918 19.9108 21.0231 19.8137 21.0292 19.7134C21.0352 19.6131 21.0158 19.5129 20.9727 19.4221L19.7237 16.793V11.8103C19.7237 9.11911 18.0228 6.82605 15.6361 5.9415V5.19898C15.6361 3.99416 14.6551 3 13.4526 3ZM13.4526 4.19087C14.0096 4.19087 14.4451 4.62707 14.4451 5.19898V5.62977C14.1218 5.57801 13.7904 5.551 13.4526 5.551C13.1148 5.551 12.7834 5.57801 12.4601 5.62977V5.19898C12.4601 4.62707 12.8956 4.19087 13.4526 4.19087ZM13.4526 6.74232C16.278 6.74232 18.5327 8.99307 18.5327 11.8103V16.9274C18.5327 17.0158 18.5524 17.103 18.5903 17.1829L19.4926 19.082H16.6755H15.4845H11.4207H10.2297H7.41262L8.3149 17.1829C8.35282 17.103 8.3725 17.0158 8.37252 16.9274V11.8103C8.37252 8.99307 10.6272 6.74232 13.4526 6.74232ZM11.4348 20.2731H15.4704C15.3529 21.2876 14.5066 22.0564 13.4526 22.0564C12.3986 22.0564 11.5524 21.2876 11.4348 20.2731Z" fill="#787878"/>
</svg>
