<svg width="38" height="38" viewBox="0 0 38 38" fill="none" xmlns="http://www.w3.org/2000/svg">
<circle cx="19" cy="19" r="19" fill="#F8F8F8"/>
<mask id="mask0_593_6235" style="mask-type:alpha" maskUnits="userSpaceOnUse" x="8" y="8" width="23" height="23">
<rect x="8" y="8" width="22.8" height="22.8" fill="#D9D9D9"/>
</mask>
<g mask="url(#mask0_593_6235)">
<path d="M18.8672 9.90039L18.8682 9.90234C22.6698 9.92453 25.7508 13.0059 25.751 16.8008C25.751 18.0311 25.3244 19.3582 24.6963 20.6562C24.0676 21.9554 23.2331 23.2335 22.4072 24.3672C21.5809 25.5016 20.7542 26.492 20.1348 27.1982C19.8253 27.551 19.5675 27.8333 19.3867 28.0273C19.2963 28.1244 19.2243 28.2001 19.1758 28.251C19.1518 28.2761 19.1336 28.2956 19.1211 28.3086L19.1016 28.3281C19.0286 28.4022 18.9286 28.4434 18.8252 28.4434C18.7219 28.4433 18.6228 28.4021 18.5498 28.3281L18.5205 28.2998V28.2969C18.5088 28.2847 18.4931 28.2693 18.4746 28.25C18.426 28.1992 18.3551 28.1235 18.2646 28.0264C18.0838 27.8322 17.8253 27.5503 17.5156 27.1973C16.8962 26.491 16.0695 25.5006 15.2432 24.3662C14.4175 23.2327 13.5827 21.9552 12.9541 20.6562C12.326 19.3583 11.9005 18.031 11.9004 16.8008C11.9004 12.992 15.0055 9.90039 18.8262 9.90039H18.8672ZM18.5098 10.6807C15.2555 10.8452 12.6741 13.5194 12.6738 16.7998C12.6738 17.8497 13.0648 19.0704 13.6631 20.3115C14.2606 21.5509 15.061 22.8023 15.8691 23.9121C17.2533 25.8118 18.4817 27.1105 18.8242 27.4668C19.1668 27.1109 20.3983 25.8124 21.7822 23.9121C22.5903 22.8024 23.3899 21.5508 23.9873 20.3115C24.5857 19.0703 24.9766 17.8495 24.9766 16.7998C24.9763 13.4128 22.2279 10.6729 18.8262 10.6729L18.5098 10.6807ZM18.8262 13.1455C20.5599 13.1456 21.9707 14.5528 21.9707 16.2822C21.9707 18.0125 20.5598 19.4189 18.8262 19.4189C17.0925 19.4189 15.6787 18.0118 15.6787 16.2822C15.6787 14.5518 17.0926 13.1455 18.8262 13.1455ZM18.8262 13.9189C17.5111 13.9189 16.4532 14.9741 16.4531 16.2812C16.4531 17.5884 17.5111 18.6436 18.8262 18.6436C20.1411 18.6435 21.1982 17.5885 21.1982 16.2812C21.1982 14.9741 20.1411 13.919 18.8262 13.9189Z" fill="black" stroke="black" stroke-width="0.2"/>
</g>
</svg>
