<svg width="20" height="16" viewBox="0 0 20 16" fill="none" xmlns="http://www.w3.org/2000/svg">
<path d="M2.33252 0C1.05065 0 0 1.05056 0 2.33318V13.3317C0 14.6144 1.05056 15.6642 2.33252 15.6642H17.4577C18.7396 15.6642 19.7902 14.6145 19.7902 13.3317V2.33408C19.7902 1.05134 18.7397 0 17.4577 0H2.33252ZM2.33252 1.23318H17.4577C18.0743 1.23318 18.5535 1.71322 18.5535 2.3333V4.67093H1.23692V2.33419C1.23692 1.71411 1.71522 1.23407 2.3327 1.23407L2.33252 1.23318ZM1.23674 5.90757H18.5533V13.3319C18.5533 13.952 18.075 14.4277 17.4575 14.4277L2.33234 14.4268C1.71576 14.4268 1.23657 13.9511 1.23657 13.331L1.23674 5.90757ZM12.5362 11.0769C12.3727 11.076 12.2153 11.1403 12.0988 11.256C11.9823 11.3717 11.9162 11.5282 11.9162 11.6926C11.9153 11.8569 11.9805 12.0152 12.0971 12.1326C12.2136 12.2492 12.3719 12.3144 12.5362 12.3135H15.8739C16.0392 12.3144 16.1974 12.2492 16.314 12.1326C16.4305 12.0152 16.4958 11.8569 16.4949 11.6926C16.494 11.5282 16.4288 11.3717 16.3123 11.256C16.1957 11.1403 16.0383 11.076 15.8739 11.0769H12.5362Z" fill="black"/>
</svg>
