<svg width="13" height="13" viewBox="0 0 13 13" fill="none" xmlns="http://www.w3.org/2000/svg">
<path d="M6.2002 0.147461C6.56902 0.147567 6.86797 0.446642 6.86816 0.81543V5.53223H11.584C11.953 5.53223 12.252 5.83116 12.252 6.2002C12.2519 6.56915 11.9529 6.86816 11.584 6.86816H6.86816V11.584C6.86816 11.9529 6.56914 12.2518 6.2002 12.252C5.83116 12.252 5.53223 11.953 5.53223 11.584V6.86816H0.81543C0.446635 6.86797 0.147556 6.56903 0.147461 6.2002C0.147461 5.83128 0.446576 5.53242 0.81543 5.53223H5.53223V0.81543C5.53242 0.446577 5.83128 0.147461 6.2002 0.147461Z" fill="black" stroke="black" stroke-width="0.295238"/>
</svg>
