<svg width="27" height="26" viewBox="0 0 27 26" fill="none" xmlns="http://www.w3.org/2000/svg">
<path d="M24.375 13.875C24.375 7.8759 19.4991 3 13.5 3C7.5009 3 2.625 7.88239 2.625 13.875C2.625 17.7965 4.74157 21.4193 8.15015 23.3411C9.36425 24.0293 10.7082 24.4773 12.0976 24.6591C12.5586 24.7175 13.0325 24.75 13.5 24.75C13.9675 24.75 14.4414 24.7175 14.9024 24.6591C15.5971 24.5682 16.2788 24.4124 16.941 24.1916C17.6033 23.9709 18.2396 23.6852 18.8498 23.3411C22.2584 21.4193 24.375 17.79 24.375 13.875ZM18.1227 22.6269C18.1227 22.6269 18.0643 22.6594 18.0318 22.6724C17.7331 22.8282 17.4215 22.9646 17.1098 23.0879C17.0449 23.1139 16.9735 23.1399 16.9086 23.1593C16.5969 23.2697 16.2788 23.3736 15.9607 23.4515C15.8893 23.471 15.8178 23.484 15.7464 23.4969C15.4218 23.5684 15.0972 23.6333 14.766 23.6722C14.7011 23.6787 14.6362 23.6852 14.5648 23.6917C14.2531 23.7242 13.935 23.7437 13.6169 23.7501C13.5454 23.7501 13.4675 23.7501 13.3961 23.7501C13.078 23.7501 12.7663 23.7242 12.4547 23.6917C12.3898 23.6852 12.3184 23.6787 12.2534 23.6722C11.9223 23.6333 11.5977 23.5684 11.2731 23.4969C11.2016 23.4775 11.1237 23.4645 11.0523 23.445C10.7342 23.3671 10.416 23.2697 10.1044 23.1528C10.0395 23.1269 9.96806 23.1074 9.90313 23.0814C9.585 22.9581 9.27985 22.8217 8.9747 22.6659C8.94873 22.6529 8.91627 22.6334 8.8903 22.6204V21.3349C8.8903 18.7834 10.9614 16.7122 13.513 16.7122C14.7466 16.7122 15.9087 17.1927 16.7852 18.0627C17.6552 18.9392 18.1357 20.1013 18.1357 21.3349V22.6204L18.1227 22.6269ZM19.0966 22.0426V21.3479C19.0966 19.8546 18.5187 18.4522 17.4604 17.3875C16.941 16.8746 16.3437 16.4785 15.6945 16.1993C17.2787 15.3943 18.3694 13.7516 18.3694 11.8623C18.3694 9.1809 16.1879 6.99291 13.5 6.99291C10.8121 6.99291 8.6306 9.1744 8.6306 11.8623C8.6306 13.7581 9.72134 15.4007 11.3055 16.1993C9.30582 17.0563 7.89694 19.0431 7.89694 21.3479V22.0426C5.22201 20.2117 3.59239 17.1602 3.59239 13.8815C3.59239 8.42127 8.03328 3.98037 13.4935 3.98037C18.9537 3.98037 23.3946 8.42127 23.3946 13.8815C23.3946 17.1602 21.765 20.2117 19.0901 22.0426H19.0966ZM13.5 15.7513C11.351 15.7513 9.60448 14.0049 9.60448 11.8558C9.60448 9.70679 11.351 7.9603 13.5 7.9603C15.649 7.9603 17.3955 9.70679 17.3955 11.8558C17.3955 14.0049 15.649 15.7513 13.5 15.7513Z" fill="#787878"/>
</svg>
