<svg width="24" height="24" viewBox="0 0 24 24" fill="none" xmlns="http://www.w3.org/2000/svg">
<path d="M22.4592 7.23817L21.3943 6.17326C21.1039 5.88283 20.644 5.88283 20.3778 6.17326C19.6517 6.89933 18.3932 6.89933 17.6671 6.17326C16.9169 5.42298 16.9169 4.21286 17.6671 3.46258C17.9576 3.17215 17.9576 2.7123 17.6671 2.44607L16.6022 1.38116C15.2711 0.0500284 13.1171 0.0500284 11.7859 1.38116L1.45148 11.7156C0.120341 13.0468 0.120341 15.2008 1.45148 16.5319L2.51639 17.5968C2.80682 17.8873 3.26666 17.8873 3.53289 17.5968C4.28317 16.8466 5.49329 16.8466 6.24357 17.5968C6.60661 17.9599 6.80023 18.4439 6.80023 18.9522C6.80023 19.4604 6.60661 19.9445 6.24357 20.3075C5.95314 20.5979 5.95314 21.0578 6.24357 21.324L7.30848 22.3889C7.96195 23.0424 8.83324 23.3812 9.70452 23.3812C10.5758 23.3812 11.4471 23.0424 12.1006 22.3889L22.435 12.0545C23.7904 10.7475 23.7904 8.5693 22.4592 7.23817ZM21.4427 11.038L11.1083 21.3724C10.358 22.1469 9.09946 22.1469 8.34919 21.3724L7.74412 20.7674C8.08296 20.2349 8.27658 19.6056 8.27658 18.9522C8.27658 18.0567 7.93774 17.2096 7.28428 16.5803C6.14676 15.4428 4.37998 15.2734 3.09725 16.1205L2.49218 15.5154C1.7177 14.7409 1.7177 13.5066 2.49218 12.7563L12.8266 2.42187C13.6011 1.64739 14.8355 1.64739 15.5857 2.42187L16.1908 3.02693C15.3437 4.33387 15.5131 6.07645 16.6264 7.21396C17.2557 7.84323 18.1028 8.20626 18.9983 8.20626C19.6517 8.20626 20.281 8.01264 20.8135 7.67381L21.4185 8.27887C22.193 9.02915 22.193 10.2877 21.4427 11.038Z" fill="#3D3E4B"/>
<path d="M12.6757 6.71001C12.3853 6.41958 11.9255 6.41958 11.6592 6.71001C11.3688 7.00044 11.3688 7.46029 11.6592 7.72651L16.1125 12.1798C16.2577 12.325 16.4271 12.3976 16.6207 12.3976C16.8144 12.3976 16.9838 12.325 17.129 12.1798C17.4194 11.8893 17.4194 11.4295 17.129 11.1633L12.6757 6.71001Z" fill="#3D3E4B"/>
<path d="M10.2382 9.15142C9.9478 8.86099 9.48796 8.86099 9.22173 9.15142C8.9313 9.44185 8.9313 9.90169 9.22173 10.1679L13.675 14.6212C13.8202 14.7664 13.9896 14.839 14.1832 14.839C14.3769 14.839 14.5463 14.7664 14.6915 14.6212C14.9819 14.3307 14.9819 13.8709 14.6915 13.6047L10.2382 9.15142Z" fill="#3D3E4B"/>
<path d="M7.79683 11.6006C7.5064 11.3102 7.04655 11.3102 6.78032 11.6006C6.48989 11.8911 6.48989 12.3509 6.78032 12.6171L11.2336 17.0704C11.3788 17.2156 11.5482 17.2882 11.7418 17.2882C11.9355 17.2882 12.1049 17.2156 12.2501 17.0704C12.5405 16.78 12.5405 16.3201 12.2501 16.0539L7.79683 11.6006Z" fill="#3D3E4B"/>
</svg>
