<svg width="21" height="17" viewBox="0 0 21 17" fill="none" xmlns="http://www.w3.org/2000/svg">
<path d="M14.1211 6.3291H16.4863C18.5389 6.3291 20.2098 8.00019 20.21 10.0527V13.8018C20.2098 14.1487 19.9275 14.4307 19.582 14.4307C19.2352 14.4305 18.9541 14.1496 18.9541 13.8027V10.0527C18.9539 8.69146 17.8477 7.58496 16.4863 7.58496H14.1211C12.7599 7.58515 11.6535 8.69157 11.6533 10.0527C11.6533 10.3997 11.3724 10.6807 11.0254 10.6807C10.6785 10.6806 10.3975 10.3997 10.3975 10.0527C10.3977 8.00028 12.0687 6.32929 14.1211 6.3291Z" fill="black" stroke="white" stroke-width="0.10818"/>
<path d="M15.2998 0.0537109C16.9037 0.0537109 18.2098 1.35867 18.21 2.96387C18.2087 4.56925 16.9038 5.87402 15.2998 5.87402C13.6959 5.87389 12.3896 4.56909 12.3896 2.96387C12.3898 1.36005 13.6947 0.0538406 15.2998 0.0537109ZM15.2998 1.31055C14.3886 1.31068 13.6455 2.05317 13.6455 2.96582C13.6458 3.87686 14.3873 4.61999 15.2998 4.62012C16.211 4.62012 16.9548 3.87833 16.9551 2.96582V2.96484C16.9535 2.05244 16.2111 1.31055 15.2998 1.31055Z" fill="black" stroke="white" stroke-width="0.10818"/>
<path d="M3.77734 8.32324H6.14258C8.19519 8.32324 9.86602 9.99434 9.86621 12.0469V15.7969C9.86621 16.1439 9.58525 16.4248 9.23828 16.4248C8.89142 16.4247 8.61035 16.1438 8.61035 15.7969V12.0469C8.61016 10.6856 7.5039 9.5791 6.14258 9.5791H3.77734C2.41618 9.57929 1.30976 10.6857 1.30957 12.0469V15.7969C1.30957 16.1439 1.02861 16.4248 0.681641 16.4248C0.334735 16.4247 0.0537109 16.1438 0.0537109 15.7969V12.0469C0.0539034 9.99442 1.72492 8.32343 3.77734 8.32324Z" fill="black" stroke="white" stroke-width="0.10818"/>
<path d="M4.96387 2.05176C6.5678 2.05176 7.87389 3.35672 7.87402 4.96191C7.87402 6.56722 6.56788 7.87207 4.96387 7.87207C3.35997 7.87194 2.05371 6.56714 2.05371 4.96191C2.05384 3.35809 3.35875 2.05189 4.96387 2.05176ZM4.96387 3.30859C4.05264 3.30872 3.30957 4.05122 3.30957 4.96387C3.30983 5.87491 4.05141 6.61803 4.96387 6.61816C5.87505 6.61816 6.61888 5.87637 6.61914 4.96387C6.61914 4.05117 5.87657 3.30859 4.96387 3.30859Z" fill="black" stroke="white" stroke-width="0.10818"/>
</svg>
