<svg width="17" height="17" viewBox="0 0 17 17" fill="none" xmlns="http://www.w3.org/2000/svg">
<path d="M8.31979 0.00571028C8.21165 0.0215643 8.11053 0.0687131 8.02885 0.141345L5.79633 2.11675L2.8224 2.29724C2.68569 2.30557 2.55677 2.36371 2.46002 2.46065C2.36328 2.5576 2.30542 2.68663 2.29737 2.82336L2.11573 5.79741L0.1403 8.02986C0.0498818 8.13221 0 8.26408 0 8.40066C0 8.53723 0.0498818 8.6691 0.1403 8.77145L2.11573 11.0039L2.29737 13.978C2.30542 14.1147 2.36328 14.2437 2.46002 14.3407C2.55677 14.4376 2.68569 14.4957 2.8224 14.5041L5.79633 14.6846L8.02885 16.66C8.13128 16.7507 8.26332 16.8008 8.40014 16.8008C8.53697 16.8008 8.66914 16.7507 8.77156 16.66L11.0029 14.6846L13.978 14.5041C14.1147 14.4957 14.2437 14.4376 14.3404 14.3407C14.4371 14.2437 14.495 14.1147 14.503 13.978L14.6847 11.0039L16.66 8.77145C16.7504 8.6691 16.8004 8.53723 16.8004 8.40066C16.8004 8.26408 16.7504 8.13221 16.66 8.02986L14.6847 5.79741L14.503 2.82336C14.495 2.68664 14.4371 2.55761 14.3404 2.46066C14.2437 2.36372 14.1147 2.30558 13.978 2.29724L11.0029 2.11675L8.77156 0.141345C8.71066 0.0872463 8.63862 0.0470851 8.5606 0.0236595C8.48258 0.000233915 8.40042 -0.0058927 8.31979 0.00571028ZM8.39963 1.30843L10.4045 3.08367C10.4982 3.16623 10.6168 3.21513 10.7414 3.22259L13.4158 3.38447L13.5787 6.05881C13.5861 6.18345 13.635 6.30202 13.7176 6.39571L15.4929 8.40065L13.7176 10.4056C13.635 10.4993 13.5861 10.6178 13.5787 10.7425L13.4158 13.4168L10.7414 13.5787C10.6168 13.5862 10.4982 13.6351 10.4045 13.7176L8.39963 15.4929L6.39461 13.7176C6.30094 13.6351 6.18245 13.5862 6.05781 13.5787L3.3845 13.4168L3.22159 10.7425C3.21415 10.6178 3.16526 10.4993 3.08271 10.4056L1.3074 8.40065L3.08271 6.39571C3.16526 6.30202 3.21415 6.18345 3.22159 6.05881L3.3845 3.38447L6.05781 3.22259C6.18245 3.21513 6.30094 3.16623 6.39461 3.08367L8.39963 1.30843ZM8.40066 4.22013C6.90869 4.22013 5.52948 5.02047 4.78349 6.31258C4.0375 7.60468 4.0375 9.19989 4.78349 10.492C5.52948 11.7841 6.90869 12.579 8.40066 12.579C8.54843 12.5784 8.69007 12.5194 8.79456 12.4149C8.89905 12.3104 8.95791 12.1689 8.9585 12.0211V4.78235C8.95907 4.63382 8.90059 4.49116 8.79598 4.38572C8.69137 4.28029 8.54919 4.22073 8.40066 4.22013ZM7.83843 5.66723V11.133C7.01912 10.9458 6.18108 10.6756 5.75047 9.92978C5.20366 8.98267 5.20366 7.81753 5.75047 6.87042C6.18108 6.12457 7.01912 5.85436 7.83843 5.66723Z" fill="black"/>
</svg>
