<svg width="22" height="22" viewBox="0 0 22 22" fill="none" xmlns="http://www.w3.org/2000/svg">
<path fill-rule="evenodd" clip-rule="evenodd" d="M14.7654 1.37054C14.9978 1.70259 15.9314 3.12038 16.1748 3.29095C16.4123 3.45732 18.0775 3.85447 18.4632 3.95784C19.4173 4.21335 20.048 5.11219 19.9619 6.09619C19.9267 6.49801 19.7305 8.18998 19.8068 8.47512C19.8859 8.771 20.892 10.1202 21.1284 10.4578C21.6987 11.2724 21.6042 12.3563 20.9023 13.0582C20.6169 13.3436 19.3802 14.5119 19.2556 14.7796H19.2535C19.1329 15.0383 19.0295 16.7536 18.9952 17.1478C18.952 17.6424 18.7376 18.0828 18.41 18.4101L18.4088 18.409C18.0798 18.7375 17.64 18.9522 17.1474 18.9954C16.7528 19.0299 15.0384 19.133 14.7794 19.2537C14.6861 19.2971 14.5981 19.3608 14.5136 19.4448L14.5148 19.4459L13.058 20.9027C12.3559 21.6046 11.2723 21.6993 10.4577 21.1288C10.1198 20.8922 8.77085 19.8863 8.47473 19.8069C8.19029 19.7306 6.49762 19.9271 6.09604 19.9621C5.11204 20.0482 4.2132 19.4175 3.95769 18.4633C3.85432 18.0772 3.4574 16.4132 3.2908 16.175C3.12046 15.9316 1.7022 14.998 1.37039 14.7656C0.556491 14.1957 0.273213 13.1438 0.69253 12.2443L1.56336 10.3769H1.56546C1.66207 10.1694 1.67957 9.96035 1.61983 9.73727L1.08664 7.74732C0.829735 6.78829 1.29082 5.79985 2.19035 5.38053C2.55857 5.20879 4.11496 4.537 4.32614 4.32582C4.53708 4.11488 5.20934 2.55802 5.38085 2.18981C5.80016 1.29027 6.7886 0.828955 7.74764 1.0861C8.14269 1.19204 9.76255 1.67715 10.0636 1.65079C10.359 1.62512 11.8778 0.863256 12.2444 0.692216C13.1439 0.273367 14.1954 0.556644 14.7654 1.37054ZM14.5409 8.37455L9.97209 12.4849L7.45899 10.224C6.92394 9.74264 6.19288 10.5554 6.7277 11.0365L9.60318 13.6236C9.80829 13.8117 10.1266 13.8163 10.3377 13.6264L15.2722 9.18705C15.8071 8.70566 15.076 7.89293 14.5409 8.37455ZM15.0534 3.6825L13.8717 1.99497C13.6087 1.61929 13.125 1.48955 12.7062 1.68485C9.79942 3.04011 10.5638 2.97314 7.46529 2.14291C7.02054 2.02367 6.56786 2.23414 6.37302 2.65229C5.0173 5.55997 5.55959 5.01745 2.65214 6.37317C2.23399 6.56801 2.02375 7.02093 2.14275 7.46568L2.67594 9.45563C2.80405 9.93421 2.76391 10.3876 2.55367 10.8384L2.55554 10.8393L1.6847 12.7068C1.48939 13.1256 1.6189 13.6094 1.99458 13.8723C4.62085 15.7111 4.1845 15.0857 5.01403 18.1817C5.13444 18.6309 5.53859 18.9128 6.002 18.8722C9.19623 18.5926 8.45397 18.3954 11.0819 20.2353C11.4566 20.4976 11.9569 20.4556 12.2838 20.1289L13.7427 18.6722C13.7683 18.6614 14.1825 18.1563 15.0009 18.0849L17.0531 17.9052C17.2839 17.8851 17.4869 17.7873 17.6355 17.6385V17.6364C17.7858 17.4861 17.8843 17.2831 17.9043 17.054L18.084 15.0015C18.105 14.7602 18.165 14.5334 18.2651 14.3189L18.2632 14.318C18.3619 14.1064 18.4975 13.915 18.6713 13.7412L20.1281 12.2844C20.455 11.9575 20.497 11.457 20.2345 11.0825C18.3944 8.45482 18.5918 9.19662 18.8713 6.00262C18.9119 5.53897 18.63 5.13482 18.1808 5.01465L16.1907 4.48146C15.7191 4.35453 15.3348 4.08432 15.0534 3.6825Z" fill="#47A359"/>
</svg>
