<svg width="22" height="20" viewBox="0 0 22 20" fill="none" xmlns="http://www.w3.org/2000/svg">
<path d="M15.5449 5.45312C15.103 -0.0490055 7.18656 -0.224717 6.60645 5.4209C6.55232 6.2422 6.72217 7.04548 7.0918 7.76562L7.2627 8.06934L7.26367 8.07227L10.6631 14.0635L10.665 14.0664L10.6992 14.1211C10.7863 14.2392 10.9286 14.3016 11.0771 14.3018C11.2473 14.3018 11.41 14.2199 11.4902 14.0664C11.4911 14.0646 11.4924 14.063 11.4932 14.0615C11.4953 14.0575 11.4977 14.052 11.501 14.0459C11.5077 14.0335 11.5177 14.0156 11.5303 13.9932C11.5555 13.948 11.5929 13.8824 11.6396 13.7998C11.7333 13.6342 11.8663 13.3987 12.0264 13.1172C12.3468 12.5536 12.7744 11.8042 13.2012 11.0547C13.628 10.3052 14.0544 9.5554 14.374 8.99219C14.5338 8.71062 14.6669 8.47565 14.7598 8.31055C14.8062 8.22799 14.8426 8.16265 14.8672 8.11816C14.875 8.10408 14.8805 8.09168 14.8857 8.08203V8.0791L14.9072 8.04395C15.3342 7.34593 15.5588 6.54251 15.5596 5.71973L15.5449 5.45312ZM15.6416 8.4707V8.47266C15.64 8.47547 15.637 8.47964 15.6338 8.48535C15.6273 8.49675 15.618 8.51408 15.6055 8.53613C15.5804 8.58021 15.5436 8.64457 15.4971 8.72656C15.4037 8.89112 15.2701 9.12641 15.1104 9.4082C14.7906 9.97205 14.3645 10.7241 13.9385 11.4756C13.5125 12.227 13.0864 12.9783 12.7666 13.542C12.6067 13.8238 12.4734 14.0591 12.3799 14.2236C12.3332 14.3057 12.2957 14.3699 12.2705 14.4141C12.2581 14.4359 12.2488 14.4533 12.2422 14.4648C12.239 14.4704 12.2362 14.4753 12.2344 14.4785L12.2324 14.4795C11.7517 15.3717 10.4074 15.3712 9.92676 14.4805L9.99316 14.4238L9.9248 14.3936C9.91702 14.4219 9.91898 14.4582 9.9209 14.4648C9.92176 14.4673 9.92314 14.471 9.92383 14.4727L9.92578 14.4766C9.92454 14.4742 9.92208 14.4696 9.91895 14.4639C9.91275 14.4526 9.90294 14.436 9.89062 14.4141C9.86584 14.3699 9.82976 14.3049 9.7832 14.2227C9.69001 14.0579 9.5566 13.8229 9.39648 13.541C9.07625 12.9773 8.64882 12.2266 8.22168 11.4756C7.79465 10.7248 7.36772 9.97389 7.04785 9.41016C6.88791 9.12828 6.75415 8.89248 6.66113 8.72754C6.61471 8.64523 6.57853 8.57972 6.55371 8.53516C6.5414 8.51305 6.53191 8.49541 6.52539 8.4834C6.52222 8.47755 6.51863 8.47268 6.5166 8.46875C6.51572 8.46703 6.51485 8.46443 6.51367 8.46191C6.51344 8.46141 6.5123 8.46034 6.51172 8.45898C5.95035 7.52686 5.69255 6.45714 5.7627 5.36328V5.35938C6.46262 -1.45304 16.1657 -1.13123 16.4102 5.71191V5.71582C16.4101 6.68883 16.1445 7.6397 15.6426 8.46973L15.6416 8.4707Z" fill="#3D3E4B" stroke="#3D3E4B" stroke-width="0.2"/>
<path d="M11.083 2.83301V2.83398C14.888 2.95486 14.8921 8.47969 11.083 8.60059L11.0762 8.60156V8.60059C7.26839 8.47944 7.26835 2.9551 11.0762 2.83398L11.083 2.83301ZM11.0791 3.68164C8.39153 3.76955 8.38996 7.66289 11.0791 7.75195C13.7671 7.6652 13.7689 3.76957 11.0791 3.68164Z" fill="#3D3E4B" stroke="#3D3E4B" stroke-width="0.2"/>
<path d="M2.31934 16.1191V16.1201C3.15022 16.1205 3.84665 16.6948 4.03711 17.4668H9.36133C9.80554 15.685 12.3495 15.6854 12.7949 17.4668H18.1211C18.6275 15.4847 21.5611 15.7792 21.6074 17.8887V17.8926C21.562 20.0026 18.6286 20.2954 18.1211 18.3154H12.7949C12.3504 20.0955 9.80701 20.0964 9.36133 18.3154H4.03516C3.52845 20.2955 0.594008 20.0025 0.548828 17.8926V17.8906C0.548972 16.9134 1.34231 16.1207 2.31836 16.1201V16.1191H2.31934ZM2.31934 16.9678C1.10207 17.0089 1.10005 18.7703 2.31934 18.8125C3.5369 18.7717 3.54028 17.0097 2.31934 16.9678ZM11.0781 16.9668C9.86119 17.0081 9.85917 18.7691 11.0781 18.8115C12.296 18.771 12.2994 17.0085 11.0781 16.9668ZM19.8389 16.9668C18.6215 17.0078 18.6195 18.7694 19.8389 18.8115C21.0552 18.7707 21.0598 17.0088 19.8389 16.9668Z" fill="#3D3E4B" stroke="#3D3E4B" stroke-width="0.2"/>
</svg>
